<svg width="27" height="27" viewBox="0 0 22 22" fill="none" xmlns="http://www.w3.org/2000/svg">
<path d="M19.4041 11.176H10.6802L16.4902 16.9859C16.7122 17.2079 17.0777 17.226 17.306 17.0109C18.7288 15.6704 19.7074 13.8635 19.9946 11.8322C20.0438 11.4844 19.7552 11.176 19.4041 11.176V11.176ZM18.8221 8.79362C18.5192 4.40171 15.0096 0.892161 10.6177 0.58922C10.2824 0.566058 10.0001 0.848778 10.0001 1.18481V9.41126H18.2269C18.5629 9.41126 18.8453 9.12891 18.8221 8.79362ZM8.23537 11.176V2.45208C8.23537 2.10098 7.92692 1.81238 7.57949 1.86164C3.19824 2.48076 -0.150655 6.30833 0.00522741 10.8954C0.165522 15.6065 4.22177 19.4697 8.93501 19.4105C10.7879 19.3873 12.5001 18.7903 13.9078 17.7918C14.1982 17.5859 14.2174 17.1583 13.9655 16.9065L8.23537 11.176Z" fill="white"/>
</svg>
