<svg width="19" height="19" viewBox="0 0 19 19" fill="none" xmlns="http://www.w3.org/2000/svg">
<path fill-rule="evenodd" clip-rule="evenodd" d="M9.50004 18.6668C4.43743 18.6668 0.333374 14.5628 0.333374 9.50016C0.333374 4.43755 4.43743 0.333496 9.50004 0.333496C14.5626 0.333496 18.6667 4.43755 18.6667 9.50016C18.6667 14.5628 14.5626 18.6668 9.50004 18.6668ZM15.6663 13.7707C16.5072 12.5588 17 11.087 17 9.50016C17 5.35803 13.6422 2.00016 9.50004 2.00016C5.3579 2.00016 2.00004 5.35803 2.00004 9.50016C2.00004 11.087 2.49286 12.5588 3.3338 13.7707C4.27167 12.5319 6.47555 12.0002 9.50005 12.0002C12.5245 12.0002 14.7284 12.5319 15.6663 13.7707ZM14.4706 15.1166C14.2267 14.2396 12.4745 13.6668 9.50005 13.6668C6.52556 13.6668 4.77338 14.2396 4.52948 15.1166C5.8528 16.2886 7.59333 17.0002 9.50004 17.0002C11.4068 17.0002 13.1473 16.2886 14.4706 15.1166ZM9.50004 4.50016C7.48262 4.50016 6.16671 5.9633 6.16671 7.8335C6.16671 10.6896 7.63409 12.0002 9.50004 12.0002C11.3484 12.0002 12.8334 10.7332 12.8334 8.00016C12.8334 6.10148 11.5119 4.50016 9.50004 4.50016ZM7.83337 7.8335C7.83337 9.72454 8.51522 10.3335 9.50004 10.3335C10.4815 10.3335 11.1667 9.74882 11.1667 8.00016C11.1667 6.95884 10.5131 6.16683 9.50004 6.16683C8.44482 6.16683 7.83337 6.84668 7.83337 7.8335Z" fill="#8E8E93"/>
</svg>
