<svg width="25" height="23" viewBox="0 0 20 18" fill="none" xmlns="http://www.w3.org/2000/svg">
<path d="M18.125 17.5H1.875C0.839453 17.5 0 16.6605 0 15.625V1.875C0 0.839453 0.839453 0 1.875 0H18.125C19.1605 0 20 0.839453 20 1.875V15.625C20 16.6605 19.1605 17.5 18.125 17.5ZM5 3.4375C4.13707 3.4375 3.4375 4.13707 3.4375 5C3.4375 5.86293 4.13707 6.5625 5 6.5625C5.86293 6.5625 6.5625 5.86293 6.5625 5C6.5625 4.13707 5.86293 3.4375 5 3.4375ZM5 7.1875C4.13707 7.1875 3.4375 7.88707 3.4375 8.75C3.4375 9.61293 4.13707 10.3125 5 10.3125C5.86293 10.3125 6.5625 9.61293 6.5625 8.75C6.5625 7.88707 5.86293 7.1875 5 7.1875ZM5 10.9375C4.13707 10.9375 3.4375 11.6371 3.4375 12.5C3.4375 13.3629 4.13707 14.0625 5 14.0625C5.86293 14.0625 6.5625 13.3629 6.5625 12.5C6.5625 11.6371 5.86293 10.9375 5 10.9375ZM16.25 5.625V4.375C16.25 4.11613 16.0401 3.90625 15.7812 3.90625H7.96875C7.70988 3.90625 7.5 4.11613 7.5 4.375V5.625C7.5 5.88387 7.70988 6.09375 7.96875 6.09375H15.7812C16.0401 6.09375 16.25 5.88387 16.25 5.625ZM16.25 9.375V8.125C16.25 7.86613 16.0401 7.65625 15.7812 7.65625H7.96875C7.70988 7.65625 7.5 7.86613 7.5 8.125V9.375C7.5 9.63387 7.70988 9.84375 7.96875 9.84375H15.7812C16.0401 9.84375 16.25 9.63387 16.25 9.375ZM16.25 13.125V11.875C16.25 11.6161 16.0401 11.4062 15.7812 11.4062H7.96875C7.70988 11.4062 7.5 11.6161 7.5 11.875V13.125C7.5 13.3839 7.70988 13.5938 7.96875 13.5938H15.7812C16.0401 13.5938 16.25 13.3839 16.25 13.125Z" fill="white"/>
</svg>
