<svg width="40" height="40" viewBox="0 0 37 37" fill="none" xmlns="http://www.w3.org/2000/svg">
<circle cx="18.3053" cy="18.3053" r="17.0553" fill="#36474A" stroke="white" stroke-width="2.5"/>
<path d="M28.4472 14.2889V25.7696C28.4472 26.8259 27.5901 27.683 26.5337 27.683H9.95055C8.89417 27.683 8.03711 26.8259 8.03711 25.7696V14.2889C8.03711 13.2325 8.89417 12.3755 9.95055 12.3755H13.4585L13.9488 11.064C14.2279 10.3185 14.9414 9.82422 15.7387 9.82422H20.7416C21.5388 9.82422 22.2524 10.3185 22.5314 11.064L23.0257 12.3755H26.5337C27.5901 12.3755 28.4472 13.2325 28.4472 14.2889ZM23.0257 20.0292C23.0257 17.3903 20.8811 15.2456 18.2421 15.2456C15.6032 15.2456 13.4585 17.3903 13.4585 20.0292C13.4585 22.6682 15.6032 24.8128 18.2421 24.8128C20.8811 24.8128 23.0257 22.6682 23.0257 20.0292ZM21.7501 20.0292C21.7501 21.9626 20.1755 23.5372 18.2421 23.5372C16.3088 23.5372 14.7342 21.9626 14.7342 20.0292C14.7342 18.0959 16.3088 16.5213 18.2421 16.5213C20.1755 16.5213 21.7501 18.0959 21.7501 20.0292Z" fill="white"/>
</svg>
