<svg width="24" height="24" viewBox="0 0 24 24" fill="none" xmlns="http://www.w3.org/2000/svg">
<g clip-path="url(#clip0_940_36626)">
<path d="M20.4802 3.51206C19.3668 2.39629 18.044 1.51148 16.5877 0.908436C15.1315 0.305396 13.5704 -0.00398749 11.9942 -0.00194306C5.36616 -0.00194306 -0.00683594 5.37106 -0.00683594 11.9991C-0.00683594 15.3131 1.33716 18.3141 3.50916 20.4861C4.62249 21.6018 5.94529 22.4866 7.40158 23.0897C8.85787 23.6927 10.419 24.0021 11.9952 24.0001C18.6232 24.0001 23.9962 18.6271 23.9962 11.9991C23.9962 8.68506 22.6522 5.68406 20.4802 3.51206V3.51206ZM18.9382 18.9391C18.0274 19.8522 16.9452 20.5763 15.7536 21.0699C14.5621 21.5634 13.2848 21.8167 11.9952 21.8151C6.57216 21.8151 2.17616 17.4191 2.17616 11.9961C2.17455 10.7064 2.42779 9.42908 2.92135 8.23757C3.41491 7.04607 4.13905 5.96383 5.05216 5.05306C5.96272 4.13993 7.04478 3.41577 8.23612 2.92221C9.42747 2.42864 10.7046 2.17541 11.9942 2.17706C17.4162 2.17706 21.8122 6.57306 21.8122 11.9951C21.8139 13.2846 21.5607 14.5618 21.0671 15.7531C20.5735 16.9445 19.8493 18.0265 18.9362 18.9371L18.9382 18.9391Z" fill="#55555E"/>
<path d="M13.5371 12.0005L17.3921 8.14548C17.5822 7.93821 17.685 7.6655 17.6789 7.38428C17.6728 7.10306 17.5583 6.83506 17.3593 6.63622C17.1604 6.43739 16.8923 6.32308 16.6111 6.31717C16.3298 6.31125 16.0572 6.41419 15.8501 6.60448L15.8511 6.60348L11.9961 10.4585L8.14105 6.60348C7.93378 6.41332 7.66107 6.31057 7.37985 6.31666C7.09863 6.32276 6.83063 6.43724 6.6318 6.6362C6.43296 6.83517 6.31866 7.10324 6.31274 7.38446C6.30683 7.66569 6.40976 7.93833 6.60005 8.14548L6.59905 8.14448L10.4541 11.9995L6.59905 15.8545C6.49059 15.954 6.40339 16.0744 6.34269 16.2085C6.28199 16.3426 6.24905 16.4876 6.24586 16.6348C6.24267 16.7819 6.26929 16.9282 6.32412 17.0648C6.37895 17.2014 6.46085 17.3255 6.5649 17.4296C6.66895 17.5337 6.79299 17.6157 6.92956 17.6706C7.06612 17.7255 7.21239 17.7523 7.35955 17.7492C7.50671 17.7461 7.65172 17.7132 7.78586 17.6526C7.91999 17.592 8.04048 17.5049 8.14005 17.3965L8.14105 17.3955L11.9961 13.5405L15.8511 17.3955C15.9506 17.5039 16.071 17.5911 16.2051 17.6518C16.3392 17.7125 16.4842 17.7455 16.6313 17.7487C16.7785 17.7519 16.9248 17.7252 17.0614 17.6704C17.198 17.6156 17.3221 17.5337 17.4262 17.4296C17.5303 17.3256 17.6123 17.2015 17.6672 17.065C17.7221 16.9284 17.7488 16.7821 17.7457 16.635C17.7426 16.4878 17.7098 16.3428 17.6492 16.2087C17.5886 16.0745 17.5015 15.9541 17.3931 15.8545L17.3921 15.8535L13.5371 12.0005Z" fill="#55555E"/>
</g>
<defs>
<clipPath id="clip0_940_36626">
<rect width="24" height="24" fill="white"/>
</clipPath>
</defs>
</svg>
