<svg width="18" height="20" viewBox="0 0 14 16" fill="none" xmlns="http://www.w3.org/2000/svg">
<g clip-path="url(#clip0_752_35087)">
<path d="M12.9967 4.01198C12.9686 4.47416 12.9423 4.9245 12.9139 5.3751C12.8744 6.0052 12.8331 6.63505 12.7933 7.26515C12.7252 8.34585 12.6578 9.42656 12.5902 10.5073C12.5431 11.2642 12.4973 12.0215 12.4491 12.7782C12.4084 13.4167 12.3849 14.0573 12.3178 14.6932C12.2378 15.4515 11.5992 15.9961 10.8298 15.9982C9.86955 16.0008 8.90908 15.9987 7.94887 15.9987C6.37475 15.9987 4.80063 15.999 3.22624 15.9987C2.33024 15.9987 1.70238 15.3796 1.65712 14.4855C1.6037 13.4304 1.52765 12.3763 1.46187 11.3216C1.41371 10.5515 1.36608 9.78135 1.31793 9.01123C1.26056 8.0966 1.20215 7.18224 1.14504 6.26762C1.0982 5.5196 1.05268 4.77158 1.0061 4.01172H12.9967V4.01198ZM8.47989 9.99507C8.47989 10.8368 8.47989 11.6785 8.47989 12.5202C8.47989 12.8448 8.47516 13.169 8.48121 13.4935C8.49121 14.0228 8.94302 14.3879 9.45931 14.29C9.83587 14.2187 10.0987 13.8768 10.0987 13.4543C10.0993 12.0428 10.0987 10.6312 10.0987 9.21942C10.0987 8.32559 10.1001 7.43149 10.0987 6.53766C10.0977 5.98231 9.63798 5.59777 9.11459 5.71016C8.73856 5.79096 8.48094 6.12338 8.48042 6.53766C8.4791 7.69022 8.47989 8.84278 8.47989 9.99533V9.99507ZM5.52243 9.99718C5.52243 8.84357 5.52295 7.68996 5.52243 6.53661C5.52216 5.97888 5.05561 5.5954 4.52275 5.71279C4.15829 5.79306 3.90489 6.12601 3.90331 6.53977C3.90041 7.22383 3.90278 7.90815 3.90278 8.59221C3.90278 10.2022 3.90357 11.8119 3.90173 13.422C3.90147 13.7052 3.98251 13.9518 4.21092 14.1292C4.47249 14.3326 4.76431 14.3713 5.06298 14.2255C5.37086 14.075 5.52164 13.8128 5.52216 13.4714C5.52427 12.3133 5.52295 11.1553 5.52295 9.99718H5.52243Z" fill="#EB5757"/>
<path d="M6.99811 3.00122C4.86297 3.00122 2.72756 2.99622 0.59242 3.00596C0.220862 3.00754 -0.0162294 2.76592 0.00113799 2.41534C0.0156109 2.12213 0.00298 1.82787 0.00429571 1.53414C0.00587457 1.21014 0.215073 1.00168 0.541371 1.00142C1.73393 1.00063 2.9265 0.999577 4.11906 1.00379C4.22195 1.00405 4.27484 0.974046 4.31642 0.88061C4.39115 0.712687 4.47562 0.548976 4.56457 0.38816C4.7064 0.131539 4.93191 0.00309709 5.22163 0.00230749C6.40551 -0.000587722 7.58913 -0.000850924 8.77301 0.00204429C9.08536 0.00283389 9.3164 0.150753 9.46166 0.427377C9.54086 0.578718 9.62112 0.730059 9.68954 0.886137C9.72875 0.975625 9.77953 1.00379 9.87716 1.00326C11.0521 0.999313 12.2273 1.00063 13.4022 1.00063C13.8101 1.00063 13.9993 1.18856 13.9996 1.59283C13.9996 1.88235 14.0009 2.17161 13.9993 2.46113C13.9972 2.7975 13.793 3.00043 13.4564 3.00043C11.3037 3.00096 9.15088 3.00043 6.99811 3.00043V3.00122Z" fill="#EB5757"/>
</g>
<defs>
<clipPath id="clip0_752_35087">
<rect width="14" height="16" fill="white"/>
</clipPath>
</defs>
</svg>
