<svg width="20" height="24" viewBox="0 0 20 24" fill="none" xmlns="http://www.w3.org/2000/svg">
<path d="M10 23C10 23 19 18.6 19 12V4.3L10 1L1 4.3V12C1 18.6 10 23 10 23Z" stroke="white" stroke-width="2" stroke-linecap="round" stroke-linejoin="round"/>
<path d="M13.2 11.0508H6.9C6.40294 11.0508 6 11.4537 6 11.9508V15.1008C6 15.5978 6.40294 16.0008 6.9 16.0008H13.2C13.6971 16.0008 14.1 15.5978 14.1 15.1008V11.9508C14.1 11.4537 13.6971 11.0508 13.2 11.0508Z" stroke="white" stroke-width="1.5" stroke-linecap="round" stroke-linejoin="round"/>
<path d="M7.80078 11.05V9.25C7.80078 8.65326 8.03783 8.08097 8.45979 7.65901C8.88175 7.23705 9.45404 7 10.0508 7C10.6475 7 11.2198 7.23705 11.6418 7.65901C12.0637 8.08097 12.3008 8.65326 12.3008 9.25V11.05" stroke="white" stroke-width="1.5" stroke-linecap="round" stroke-linejoin="round"/>
</svg>
