<svg width="22" height="24" viewBox="0 0 24 24" fill="none" xmlns="http://www.w3.org/2000/svg">
<path fill-rule="evenodd" clip-rule="evenodd" d="M20.208 12.1942C20.208 11.5879 20.1536 11.0049 20.0525 10.4453H12V13.7526H16.6015C16.4032 14.8214 15.8009 15.7269 14.8953 16.3332V18.4784H17.6585C19.2753 16.9899 20.208 14.798 20.208 12.1942Z" fill="#4285F4"/>
<path fill-rule="evenodd" clip-rule="evenodd" d="M12.0002 20.5505C14.3087 20.5505 16.2441 19.7849 17.6588 18.4791L14.8956 16.3338C14.1299 16.8468 13.1506 17.1499 12.0002 17.1499C9.77332 17.1499 7.88844 15.6459 7.2161 13.625H4.35962V15.8402C5.76648 18.6345 8.65794 20.5505 12.0002 20.5505Z" fill="#34A853"/>
<path fill-rule="evenodd" clip-rule="evenodd" d="M7.21608 13.6244C7.04508 13.1114 6.94792 12.5634 6.94792 11.9999C6.94792 11.4364 7.04508 10.8884 7.21608 10.3754V8.16016H4.3596C3.78054 9.31441 3.4502 10.6202 3.4502 11.9999C3.4502 13.3795 3.78054 14.6854 4.3596 15.8396L7.21608 13.6244Z" fill="#FBBC05"/>
<path fill-rule="evenodd" clip-rule="evenodd" d="M12.0002 6.84979C13.2555 6.84979 14.3826 7.28117 15.2686 8.1284L17.7209 5.67611C16.2402 4.29645 14.3048 3.44922 12.0002 3.44922C8.65794 3.44922 5.76648 5.3652 4.35962 8.15949L7.2161 10.3747C7.88844 8.35381 9.77332 6.84979 12.0002 6.84979Z" fill="#EA4335"/>
</svg>
