<svg width="26" height="26" viewBox="0 0 26 26" fill="none" xmlns="http://www.w3.org/2000/svg">
<circle cx="13" cy="13" r="13" fill="#277777"/>
<path d="M18.4444 6H7.55556C6.69645 6 6 6.69645 6 7.55556V18.4444C6 19.3036 6.69645 20 7.55556 20H18.4444C19.3036 20 20 19.3036 20 18.4444V7.55556C20 6.69645 19.3036 6 18.4444 6Z" stroke="white" stroke-width="2" stroke-linecap="round" stroke-linejoin="round"/>
<path d="M10.278 11.4447C10.9223 11.4447 11.4447 10.9223 11.4447 10.278C11.4447 9.63366 10.9223 9.11133 10.278 9.11133C9.63366 9.11133 9.11133 9.63366 9.11133 10.278C9.11133 10.9223 9.63366 11.4447 10.278 11.4447Z" stroke="white" stroke-linecap="round" stroke-linejoin="round"/>
<path d="M20.0001 15.3342L16.1112 11.4453L7.55566 20.0009" stroke="white" stroke-width="2" stroke-linecap="round" stroke-linejoin="round"/>
</svg>
