<svg width="19" height="20" viewBox="0 0 19 20" fill="none" xmlns="http://www.w3.org/2000/svg">
<path d="M13.2051 9V10H14.2051V9H13.2051ZM5.20508 9H4.20508V10H5.20508V9ZM10.2051 13C10.2051 12.4477 9.75736 12 9.20508 12C8.65279 12 8.20508 12.4477 8.20508 13H10.2051ZM8.20508 15C8.20508 15.5523 8.65279 16 9.20508 16C9.75736 16 10.2051 15.5523 10.2051 15H8.20508ZM3.20508 10H15.2051V8H3.20508V10ZM16.2051 11V17H18.2051V11H16.2051ZM15.2051 18H3.20508V20H15.2051V18ZM2.20508 17V11H0.205078V17H2.20508ZM3.20508 18C2.65279 18 2.20508 17.5523 2.20508 17H0.205078C0.205078 18.6569 1.54822 20 3.20508 20V18ZM16.2051 17C16.2051 17.5523 15.7574 18 15.2051 18V20C16.8619 20 18.2051 18.6569 18.2051 17H16.2051ZM15.2051 10C15.7574 10 16.2051 10.4477 16.2051 11H18.2051C18.2051 9.34315 16.8619 8 15.2051 8V10ZM3.20508 8C1.54822 8 0.205078 9.34315 0.205078 11H2.20508C2.20508 10.4477 2.65279 10 3.20508 10V8ZM12.2051 5V9H14.2051V5H12.2051ZM13.2051 8H5.20508V10H13.2051V8ZM6.20508 9V5H4.20508V9H6.20508ZM9.20508 2C10.8619 2 12.2051 3.34315 12.2051 5H14.2051C14.2051 2.23858 11.9665 0 9.20508 0V2ZM9.20508 0C6.44365 0 4.20508 2.23858 4.20508 5H6.20508C6.20508 3.34315 7.54822 2 9.20508 2V0ZM8.20508 13V15H10.2051V13H8.20508Z" fill="#AEAEB2"/>
</svg>
