<?xml version="1.0" standalone="no"?>
<!DOCTYPE svg PUBLIC "-//W3C//DTD SVG 20010904//EN"
 "http://www.w3.org/TR/2001/REC-SVG-20010904/DTD/svg10.dtd">
<svg version="1.0" xmlns="http://www.w3.org/2000/svg"
 width="1024.000000pt" height="1024.000000pt" viewBox="0 0 1024.000000 1024.000000"
 preserveAspectRatio="xMidYMid meet">

<g transform="translate(0.0,1024.000000) scale(0.1000000,-0.100000)"
fill="#377777" stroke="none">
<path d="M0 5120 l0 -5120 5120 0 5120 0 0 5120 0 5120 -5120 0 -5120 0 0
-5120z m6065 1660 c3 -5 -3 -10 -14 -10 -12 0 -21 5 -21 10 0 6 6 10 14 10 8
0 18 -4 21 -10z m-255 -13 c0 -7 -10 -17 -22 -22 -13 -6 -23 -17 -23 -25 0
-19 -21 -33 -36 -25 -5 4 -25 9 -42 12 -55 8 -66 20 -33 33 20 7 32 8 40 0 18
-18 46 -11 58 15 12 26 58 36 58 12z m78 -15 c2 -8 -8 -12 -30 -12 -31 1 -32
1 -13 15 21 17 37 15 43 -3z m262 -12 c0 -15 -28 -19 -39 -6 -6 7 -8 15 -5 18
7 8 44 -2 44 -12z m-184 -1 c10 -17 -12 -32 -36 -24 -17 5 -19 10 -9 21 14 17
35 18 45 3z m-396 -31 c0 -19 -2 -20 -10 -8 -13 19 -13 30 0 30 6 0 10 -10 10
-22z m469 3 c19 -12 6 -41 -18 -41 -23 0 -34 23 -18 39 13 13 18 13 36 2z
m177 -6 c18 -15 18 -15 -5 -13 -14 2 -26 9 -29 16 -5 17 10 15 34 -3z m-556
-28 c0 -7 -5 -18 -11 -24 -8 -8 -8 -17 0 -32 24 -44 -40 -120 -79 -96 -7 4
-14 -2 -17 -15 -4 -14 -11 -19 -21 -15 -18 7 -75 -52 -103 -106 -19 -37 -22
-40 -62 -38 -23 1 -52 -2 -64 -6 -22 -7 -23 -4 -23 36 0 46 14 92 43 147 14
25 24 32 46 32 19 0 40 11 63 33 62 62 228 123 228 84z m253 1 c15 -7 27 -16
27 -20 0 -11 -8 -10 -32 3 -22 12 -38 -1 -37 -31 0 -8 4 -5 9 8 8 19 12 21 29
10 22 -13 17 -33 -5 -24 -8 3 -14 1 -14 -4 0 -6 5 -10 11 -10 6 0 9 -6 7 -12
-3 -7 4 -21 14 -30 10 -10 18 -15 19 -10 0 4 4 -2 8 -13 5 -11 3 -28 -3 -37
-11 -19 -56 -25 -56 -8 0 6 -3 9 -7 9 -27 -4 -35 1 -23 16 16 19 10 19 -26 0
-17 -9 -32 -11 -38 -5 -5 5 -15 1 -25 -11 -14 -17 -19 -18 -44 -7 -22 11 -27
18 -22 38 3 14 13 30 21 36 7 6 14 16 14 22 0 5 7 12 15 16 8 3 15 12 15 20 0
8 4 17 8 20 10 6 9 -30 -1 -40 -4 -4 -7 -16 -7 -27 0 -19 1 -19 18 -4 10 10
25 17 34 17 11 0 14 7 10 25 -3 16 0 25 9 25 7 0 9 3 6 7 -6 5 21 32 34 33 3
0 17 -6 32 -12z m77 -21 c0 -5 -4 -5 -10 -2 -5 3 -10 14 -10 23 0 15 2 15 10
2 5 -8 10 -19 10 -23z m115 21 c29 -13 31 -21 10 -38 -21 -18 -45 -5 -45 25 0
29 0 29 35 13z m-1451 -21 l24 -23 -26 -11 c-15 -7 -40 -15 -57 -19 -72 -16
-136 -58 -214 -140 -59 -62 -84 -96 -96 -134 -19 -56 -35 -65 -35 -20 0 23 -4
30 -20 30 -13 0 -20 7 -20 19 0 25 17 36 34 22 21 -18 27 0 9 30 -16 27 -16
29 7 54 13 14 32 25 42 25 12 0 18 7 18 25 0 29 39 68 97 96 23 11 47 27 53
35 16 19 67 18 78 -2 7 -13 11 -12 26 10 20 32 47 33 80 3z m177 -8 c16 -17
27 -24 23 -16 -6 18 23 37 56 37 16 0 21 -5 18 -22 -3 -25 29 -39 42 -18 12
20 39 4 33 -18 -2 -11 0 -23 6 -26 15 -10 14 -56 -2 -56 -7 0 -22 7 -34 15
-12 8 -29 12 -38 9 -10 -4 -25 2 -40 16 -16 15 -30 20 -44 15 -31 -10 -101 30
-101 59 0 47 39 49 81 5z m1460 1 c19 -15 21 -19 7 -20 -15 0 -48 24 -48 36 0
10 20 3 41 -16z m-871 -8 c0 -13 -39 -46 -46 -39 -9 9 16 47 31 47 8 0 15 -4
15 -8z m643 -30 c-2 -26 2 -32 30 -42 23 -9 27 -14 15 -17 -19 -5 -59 22 -78
50 -8 14 -8 22 1 33 18 22 34 10 32 -24z m112 26 c30 -14 34 -48 5 -48 -18 0
-40 26 -40 49 0 14 3 14 35 -1z m-208 -13 c8 -22 -6 -33 -17 -15 -13 20 -12
30 0 30 6 0 13 -7 17 -15z m181 -38 c4 -18 -14 -22 -37 -8 -7 5 -10 14 -6 20
10 17 39 9 43 -12z m212 8 c19 -23 8 -26 -20 -5 -19 15 -21 20 -9 20 9 0 22
-7 29 -15z m-102 -18 c14 -17 -2 -42 -22 -34 -20 8 -21 47 -2 47 7 0 18 -6 24
-13z m-48 -33 c0 -17 -22 -14 -28 4 -2 7 3 12 12 12 9 0 16 -7 16 -16z m-40
-14 c17 -12 29 -32 32 -50 5 -33 -6 -38 -37 -14 -17 12 -18 16 -5 24 12 7 11
13 -10 34 -28 31 -19 34 20 6z m255 0 c16 -18 16 -20 2 -20 -9 0 -21 9 -27 20
-6 11 -7 20 -2 20 5 0 17 -9 27 -20z m-106 -14 c9 -10 8 -16 -3 -25 -12 -10
-17 -8 -25 7 -16 30 6 44 28 18z m-537 -28 c-7 -7 -12 -8 -12 -2 0 14 12 26
19 19 2 -3 -1 -11 -7 -17z m188 8 c0 -8 -7 -16 -15 -20 -17 -6 -18 -4 -9 18 8
20 24 21 24 2z m-238 -31 c4 -15 5 -32 2 -37 -10 -17 -34 14 -34 44 0 37 21
33 32 -7z m548 19 c0 -17 -22 -14 -28 4 -2 7 3 12 12 12 9 0 16 -7 16 -16z
m-610 -25 c0 -6 -4 -7 -10 -4 -5 3 -10 11 -10 16 0 6 5 7 10 4 6 -3 10 -11 10
-16z m260 -5 c0 -8 -4 -14 -10 -14 -5 0 -10 9 -10 21 0 11 5 17 10 14 6 -3 10
-13 10 -21z m85 16 c3 -5 1 -10 -4 -10 -6 0 -11 5 -11 10 0 6 2 10 4 10 3 0 8
-4 11 -10z m475 -21 c0 -6 -7 -6 -20 1 -11 6 -20 15 -20 21 0 6 7 6 20 -1 11
-6 20 -15 20 -21z m-922 -8 c-7 -9 -14 -18 -15 -20 -2 -2 -3 8 -3 22 0 20 4
25 15 21 13 -5 13 -9 3 -23z m502 8 c0 -6 -4 -7 -10 -4 -5 3 -10 11 -10 16 0
6 5 7 10 4 6 -3 10 -11 10 -16z m309 7 c17 -20 -13 -43 -34 -26 -8 7 -15 19
-15 26 0 18 34 18 49 0z m-389 -7 c0 -5 6 -7 13 -3 8 5 7 2 -2 -9 -8 -11 -21
-15 -32 -12 -31 10 -21 -12 11 -25 36 -15 119 -102 121 -127 8 -96 6 -153 -7
-164 -12 -9 -13 1 -9 70 l4 82 -36 40 c-19 21 -46 42 -58 45 -16 4 -21 11 -18
25 4 12 0 19 -10 19 -20 0 -29 27 -17 51 11 20 40 26 40 8z m578 -17 c2 -7 -3
-12 -12 -12 -9 0 -16 7 -16 16 0 17 22 14 28 -4z m-807 -15 c-13 -13 -26 -3
-16 12 3 6 11 8 17 5 6 -4 6 -10 -1 -17z m364 13 c3 -5 -1 -10 -9 -10 -9 0
-16 5 -16 10 0 6 4 10 9 10 6 0 13 -4 16 -10z m425 -50 c0 -14 -14 -12 -28 2
-19 19 -14 30 8 18 11 -6 20 -15 20 -20z m-809 7 c-6 -8 -7 -17 -3 -22 4 -4
-2 -6 -12 -4 -26 5 -32 26 -9 32 32 8 36 7 24 -6z m466 -2 c0 -8 -4 -15 -8
-15 -11 0 -20 16 -12 24 11 11 20 7 20 -9z m229 4 c7 -12 -15 -31 -31 -26 -5
2 -11 11 -13 20 -4 19 32 24 44 6z m-346 -14 c0 -8 -4 -15 -10 -15 -5 0 -10 7
-10 15 0 8 5 15 10 15 6 0 10 -7 10 -15z m535 -25 c0 -22 -29 -18 -33 3 -3 14
1 18 15 15 10 -2 18 -10 18 -18z m-2555 -6 c0 -9 -5 -14 -12 -12 -18 6 -21 28
-4 28 9 0 16 -7 16 -16z m1658 -6 c11 3 12 0 3 -16 -14 -27 -28 -35 -36 -22
-3 5 2 10 11 10 16 0 16 1 1 18 -10 10 -17 23 -17 28 0 5 6 2 13 -7 7 -9 18
-14 25 -11z m632 12 c0 -5 -2 -10 -4 -10 -3 0 -8 5 -11 10 -3 6 -1 10 4 10 6
0 11 -4 11 -10z m111 -20 c25 -14 24 -30 -1 -30 -11 0 -20 2 -20 4 0 2 -3 11
-6 20 -7 19 0 20 27 6z m123 -12 c20 -28 20 -38 2 -38 -17 0 -48 39 -40 52 9
14 22 9 38 -14z m-2556 -16 c3 -16 -9 -35 -37 -64 -23 -22 -41 -47 -41 -56 0
-9 -10 -27 -23 -41 -28 -32 -50 -92 -41 -116 4 -10 -6 -44 -24 -83 -16 -37
-35 -80 -41 -96 -10 -24 -14 -26 -27 -15 -30 25 0 139 50 191 33 34 32 37 -1
34 -29 -3 -63 -46 -63 -79 0 -22 -34 -89 -53 -105 -13 -11 -28 -73 -31 -126
-2 -30 -25 -30 -32 -1 -4 15 -4 66 0 113 9 109 50 207 110 258 22 19 45 34 53
34 7 0 19 13 28 30 8 16 24 34 35 40 11 6 20 17 20 24 0 20 79 88 98 84 9 -2
18 -13 20 -26z m1922 18 c0 -11 -30 -34 -35 -28 -10 9 6 35 20 35 8 0 15 -4
15 -7z m398 -2 c7 -7 12 -19 12 -27 0 -14 -1 -14 -10 -1 -5 8 -10 11 -10 5 0
-11 -20 16 -20 28 0 11 15 8 28 -5z m59 -55 c-11 -10 -27 8 -27 30 l0 21 16
-22 c9 -13 14 -26 11 -29z m30 -25 c4 -38 2 -41 -10 -28 -10 10 -13 27 -10 48
7 42 15 34 20 -20z m233 33 c15 -28 13 -33 -12 -29 -15 2 -24 11 -26 26 -4 28
23 30 38 3z m-151 -25 c9 -10 9 -16 1 -21 -16 -10 -40 2 -40 20 0 19 24 20 39
1z m117 -42 c-6 -16 -8 -16 -28 3 -13 14 -18 28 -14 39 6 16 8 16 28 -3 13
-14 18 -28 14 -39z m-778 11 c-3 -3 -9 2 -12 12 -6 14 -5 15 5 6 7 -7 10 -15
7 -18z m489 3 c-3 -8 -6 -5 -6 6 -1 11 2 17 5 13 3 -3 4 -12 1 -19z m-618
-132 c7 -9 20 -16 27 -16 8 0 14 -7 14 -15 0 -17 -16 -20 -25 -5 -10 17 -45
12 -45 -7 0 -9 -3 -13 -7 -10 -8 9 -12 167 -4 187 3 8 10 -15 16 -51 5 -36 16
-74 24 -83z m679 121 c2 -10 -3 -17 -12 -17 -10 0 -16 9 -16 21 0 24 23 21 28
-4z m72 -8 c0 -5 -4 -9 -10 -9 -5 0 -10 7 -10 16 0 8 5 12 10 9 6 -3 10 -10
10 -16z m-730 7 c0 -3 -4 -8 -10 -11 -5 -3 -10 -1 -10 4 0 6 5 11 10 11 6 0
10 -2 10 -4z m957 -8 c20 -26 23 -49 7 -55 -23 -8 -47 20 -39 46 7 24 18 27
32 9z m-847 -2 c0 -3 -4 -8 -10 -11 -5 -3 -10 -1 -10 4 0 6 5 11 10 11 6 0 10
-2 10 -4z m594 -22 c9 -9 14 -27 12 -45 -4 -37 -16 -50 -16 -17 0 14 -7 31
-15 38 -17 14 -20 40 -6 40 5 0 17 -7 25 -16z m-554 -4 c0 -5 -5 -10 -11 -10
-5 0 -7 5 -4 10 3 6 8 10 11 10 2 0 4 -4 4 -10z m655 0 c4 -6 14 -9 22 -8 19
4 26 -12 14 -30 -6 -10 -15 -9 -44 8 -21 12 -34 26 -31 31 7 12 31 11 39 -1z
m-230 -9 c3 -5 1 -12 -5 -16 -5 -3 -10 1 -10 9 0 18 6 21 15 7z m95 -28 c0
-11 -4 -11 -20 -1 -11 7 -20 19 -20 25 0 11 4 11 20 1 11 -7 20 -19 20 -25z
m248 25 c14 -14 16 -44 2 -53 -11 -7 -42 49 -33 59 9 9 18 7 31 -6z m-1358
-28 c11 -11 20 -27 20 -35 0 -8 14 -44 30 -80 17 -36 30 -70 30 -76 0 -23 33
-79 46 -79 22 0 17 -27 -8 -44 -18 -13 -25 -13 -35 -3 -21 21 -101 189 -117
248 -23 80 -8 111 34 69z m464 7 c-12 -7 -19 -18 -16 -26 3 -8 -1 -12 -9 -9
-21 7 -17 32 6 40 33 10 41 8 19 -5z m506 3 c0 -5 -5 -10 -11 -10 -5 0 -7 5
-4 10 3 6 8 10 11 10 2 0 4 -4 4 -10z m77 -16 c-9 -9 -28 6 -21 18 4 6 10 6
17 -1 6 -6 8 -13 4 -17z m-467 6 c0 -5 -4 -10 -10 -10 -5 0 -10 5 -10 10 0 6
5 10 10 10 6 0 10 -4 10 -10z m622 -22 c-7 -7 -12 -8 -12 -2 0 14 12 26 19 19
2 -3 -1 -11 -7 -17z m247 -22 c11 -24 11 -30 -2 -43 -14 -14 -17 -12 -32 17
-17 34 -13 64 8 58 6 -3 18 -17 26 -32z m-634 15 c3 -5 1 -12 -5 -16 -5 -3
-10 1 -10 9 0 18 6 21 15 7z m487 -20 c22 -19 23 -28 3 -28 -8 0 -12 4 -9 9 3
4 -9 8 -25 8 -31 0 -44 24 -18 33 13 5 22 1 49 -22z m-185 -14 c-2 -6 -10 -13
-18 -16 -12 -4 -12 -2 0 13 11 13 11 16 1 14 -7 -2 -15 3 -17 10 -4 11 -1 12
16 2 12 -6 21 -16 18 -23z m-500 -1 c-3 -8 -1 -16 5 -18 6 -2 5 -8 -4 -15 -11
-10 -14 -7 -16 18 -1 16 3 29 9 29 6 0 9 -6 6 -14z m175 -36 l-9 -24 -12 23
c-7 12 -10 30 -6 39 5 14 7 14 21 1 11 -11 12 -22 6 -39z m606 38 c14 -14 16
-44 2 -53 -12 -7 -44 41 -35 55 8 13 18 13 33 -2z m-393 -8 c3 -5 -1 -10 -9
-10 -9 0 -16 5 -16 10 0 6 4 10 9 10 6 0 13 -4 16 -10z m240 -30 c3 -5 1 -10
-4 -10 -6 0 -11 5 -11 10 0 6 2 10 4 10 3 0 8 -4 11 -10z m72 -34 c-5 -13 -39
-8 -49 7 -3 5 -4 16 -1 23 4 11 10 10 29 -3 14 -9 23 -21 21 -27z m-526 -26
c57 -58 75 -88 44 -76 -9 3 -15 0 -15 -10 0 -10 6 -14 15 -10 17 6 36 -29 28
-51 -6 -16 13 -17 22 -3 11 17 36 -10 33 -34 -2 -15 2 -21 14 -20 12 1 21 -9
27 -34 11 -37 6 -56 -10 -47 -5 4 -10 0 -11 -7 0 -7 -2 -17 -3 -23 -2 -5 -3
-16 -4 -22 -2 -24 -19 -13 -24 17 -4 19 -11 28 -20 24 -8 -3 -14 2 -14 10 0 8
4 13 9 10 4 -3 8 2 8 10 0 10 -6 13 -17 9 -10 -4 -14 -2 -9 5 3 6 1 14 -6 18
-8 5 -4 10 10 15 32 12 29 37 -4 31 -24 -4 -26 -2 -21 19 3 13 0 32 -7 42 -13
17 -14 17 -21 0 -6 -16 -8 -16 -16 5 -5 13 -13 20 -19 17 -5 -3 -10 0 -10 7 0
18 -33 45 -48 40 -7 -2 -12 1 -12 6 0 6 9 14 20 17 28 9 25 43 -5 55 -14 5
-25 16 -25 25 0 30 34 14 91 -45z m693 4 c2 -16 4 -36 5 -44 1 -12 3 -13 10
-1 5 7 14 10 20 7 16 -10 14 -26 -3 -26 -9 0 -13 -10 -12 -31 1 -38 -15 -48
-29 -17 -12 25 -38 38 -29 14 7 -18 -14 -49 -27 -40 -5 3 -9 16 -9 29 0 16 7
25 25 29 35 9 41 30 16 62 -24 31 -26 45 -9 62 17 17 38 -5 42 -44z m16 46 c0
-5 -4 -10 -10 -10 -5 0 -10 5 -10 10 0 6 5 10 10 10 6 0 10 -4 10 -10z m-1080
-21 c0 -4 -7 -6 -15 -3 -8 4 -15 10 -15 15 0 4 7 6 15 3 8 -4 15 -10 15 -15z
m404 5 c10 -25 7 -34 -9 -34 -9 0 -15 9 -15 25 0 28 15 34 24 9z m-344 -4 c0
-5 -5 -10 -11 -10 -5 0 -7 5 -4 10 3 6 8 10 11 10 2 0 4 -4 4 -10z m120 0 c0
-5 -4 -10 -10 -10 -5 0 -10 5 -10 10 0 6 5 10 10 10 6 0 10 -4 10 -10z m62
-15 c9 4 21 -4 32 -19 15 -24 15 -26 -1 -26 -19 0 -63 38 -63 54 0 6 4 5 8 -2
5 -7 15 -10 24 -7z m766 -34 c-3 -30 -16 -34 -31 -10 -14 22 -2 50 18 43 10
-4 15 -16 13 -33z m-88 14 c0 -8 -7 -15 -15 -15 -9 0 -12 6 -9 15 4 8 10 15
15 15 5 0 9 -7 9 -15z m-95 -43 c0 -18 -20 -15 -23 4 -3 10 1 15 10 12 7 -3
13 -10 13 -16z m100 -6 c20 -19 24 -30 19 -50 -3 -14 -10 -26 -15 -26 -5 0 -9
-4 -9 -10 0 -5 7 -10 15 -10 8 0 15 -7 15 -15 0 -41 -42 7 -47 53 -1 17 2 22
13 18 7 -3 14 -1 14 3 0 13 -27 21 -45 15 -11 -5 -15 1 -15 20 0 33 21 34 55
2z m-451 -52 c3 -8 2 -12 -4 -9 -6 3 -10 10 -10 16 0 14 7 11 14 -7z m216 -10
c0 -8 -4 -12 -10 -9 -5 3 -10 10 -10 16 0 5 5 9 10 9 6 0 10 -7 10 -16z m27
-6 c-3 -8 -6 -5 -6 6 -1 11 2 17 5 13 3 -3 4 -12 1 -19z m413 -23 c0 -8 -7
-15 -15 -15 -8 0 -18 -12 -21 -26 -6 -23 -8 -24 -21 -11 -19 18 -8 61 13 53 8
-3 14 -1 14 4 0 6 7 10 15 10 8 0 15 -7 15 -15z m-730 -15 c0 -5 -2 -10 -4
-10 -3 0 -8 5 -11 10 -3 6 -1 10 4 10 6 0 11 -4 11 -10z m290 -31 c0 -6 -4 -7
-10 -4 -5 3 -10 11 -10 16 0 6 5 7 10 4 6 -3 10 -11 10 -16z m336 0 c8 -14
-11 -33 -25 -25 -11 7 -4 36 9 36 5 0 12 -5 16 -11z m-96 -19 c0 -5 -7 -10
-15 -10 -8 0 -15 5 -15 10 0 6 7 10 15 10 8 0 15 -4 15 -10z m-230 -20 c0 -5
-5 -10 -11 -10 -5 0 -7 5 -4 10 3 6 8 10 11 10 2 0 4 -4 4 -10z m430 -5 c0 -8
-4 -15 -10 -15 -5 0 -10 7 -10 15 0 8 5 15 10 15 6 0 10 -7 10 -15z m-2975 -3
c18 -13 75 -83 75 -91 0 -13 -60 -32 -74 -24 -35 19 -56 49 -56 78 0 17 3 35
7 38 8 9 35 9 48 -1z m2775 -7 c11 -13 10 -14 -4 -9 -9 3 -16 10 -16 15 0 13
6 11 20 -6z m160 -26 c0 -10 -4 -19 -9 -19 -12 0 -23 29 -15 41 8 14 24 0 24
-22z m-365 -18 c-3 -6 -11 -11 -17 -11 -6 0 -6 6 2 15 14 17 26 13 15 -4z
m-75 -22 c0 -5 -4 -9 -10 -9 -5 0 -10 7 -10 16 0 8 5 12 10 9 6 -3 10 -10 10
-16z m-3080 -19 c0 -5 -8 -10 -17 -10 -15 0 -16 2 -3 10 19 12 20 12 20 0z
m3195 0 c-3 -5 -10 -10 -16 -10 -5 0 -9 5 -9 10 0 6 7 10 16 10 8 0 12 -4 9
-10z m355 0 c0 -5 -5 -10 -11 -10 -5 0 -7 5 -4 10 3 6 8 10 11 10 2 0 4 -4 4
-10z m-923 -12 c4 -7 8 -22 10 -33 1 -11 -1 -14 -3 -8 -3 7 -4 15 -2 17 2 3
-6 12 -17 20 -11 9 -15 16 -8 16 6 0 15 -6 20 -12z m168 2 c3 -5 1 -10 -4 -10
-6 0 -11 5 -11 10 0 6 2 10 4 10 3 0 8 -4 11 -10z m-2018 -15 c3 -9 3 -18 0
-22 -9 -8 -49 4 -72 21 -19 15 -18 15 23 16 29 0 44 -5 49 -15z m2320 -7 c-3
-8 -6 -5 -6 6 -1 11 2 17 5 13 3 -3 4 -12 1 -19z m143 7 c0 -8 -4 -15 -10 -15
-5 0 -10 7 -10 15 0 8 5 15 10 15 6 0 10 -7 10 -15z m40 -14 c0 -11 -4 -23
-10 -26 -6 -4 -10 5 -10 19 0 14 5 26 10 26 6 0 10 -9 10 -19z m230 9 c0 -5
-4 -10 -10 -10 -5 0 -10 5 -10 10 0 6 5 10 10 10 6 0 10 -4 10 -10z m-560 -4
c0 -2 -7 -7 -16 -10 -8 -3 -12 -2 -9 4 6 10 25 14 25 6z m-2913 -12 c-3 -3
-12 -4 -19 -1 -8 3 -5 6 6 6 11 1 17 -2 13 -5z m3336 -36 c20 -16 37 -35 37
-41 0 -7 10 -18 21 -25 14 -9 18 -17 12 -23 -7 -7 -30 9 -66 46 -31 30 -62 54
-69 53 -6 -2 -14 5 -16 15 -3 16 0 18 20 12 12 -4 40 -21 61 -37z m-3563 2 c0
-5 -5 -10 -11 -10 -5 0 -7 5 -4 10 3 6 8 10 11 10 2 0 4 -4 4 -10z m133 -5
c-3 -9 -8 -14 -10 -11 -3 3 -2 9 2 15 9 16 15 13 8 -4z m147 5 c0 -5 -8 -10
-17 -10 -15 0 -16 2 -3 10 19 12 20 12 20 0z m2594 -57 c13 -27 43 -65 65 -86
40 -38 55 -87 32 -102 -12 -7 -61 65 -83 120 -9 22 -23 57 -32 78 -23 53 -11
46 18 -10z m-2554 17 c0 -5 -8 -10 -17 -10 -15 0 -16 2 -3 10 19 12 20 12 20
0z m-90 -40 c0 -5 -4 -10 -10 -10 -5 0 -10 5 -10 10 0 6 5 10 10 10 6 0 10 -4
10 -10z m150 0 c0 -5 -10 -10 -22 -10 -19 0 -20 2 -8 10 19 13 30 13 30 0z
m-277 -15 c4 -8 2 -17 -3 -20 -6 -4 -10 3 -10 14 0 25 6 27 13 6z m187 -25 c0
-11 -7 -20 -15 -20 -8 0 -15 9 -15 20 0 11 7 20 15 20 8 0 15 -9 15 -20z m167
-14 c72 -59 90 -86 59 -86 -8 0 -16 10 -18 23 -2 16 -10 22 -28 22 -18 1 -24
6 -22 18 3 17 -7 21 -39 18 -9 -1 -19 7 -22 19 -4 17 -2 19 19 14 14 -4 37
-16 51 -28z m3198 14 c3 -5 -1 -10 -9 -10 -9 0 -16 5 -16 10 0 6 4 10 9 10 6
0 13 -4 16 -10z m-3508 -22 c-3 -8 -6 -5 -6 6 -1 11 2 17 5 13 3 -3 4 -12 1
-19z m209 -10 c10 -12 13 -18 7 -14 -7 4 -13 2 -13 -3 0 -6 -9 -11 -20 -11
-11 0 -20 4 -20 9 0 5 -3 16 -6 25 -9 24 29 20 52 -6z m619 12 c-3 -5 -12 -7
-20 -3 -21 7 -19 13 6 13 11 0 18 -4 14 -10z m-765 -46 c0 -8 -6 -14 -14 -14
-9 0 -12 7 -9 20 6 22 23 18 23 -6z m201 -12 c7 -19 5 -22 -15 -22 -13 0 -26
7 -30 15 -3 9 0 15 10 15 9 0 12 5 8 11 -4 7 -1 10 6 7 7 -2 17 -14 21 -26z
m-142 -34 c1 -5 -6 -8 -14 -8 -15 0 -21 31 -8 44 7 6 20 -17 22 -36z m192 13
c0 -3 2 -13 4 -23 2 -10 -5 -18 -21 -21 -19 -3 -23 -1 -19 17 2 12 4 26 4 33
1 12 30 7 32 -6z m124 -11 c18 -19 17 -20 -2 -20 -12 0 -23 8 -26 20 -3 11 -2
20 2 20 5 0 16 -9 26 -20z m2534 -3 c6 -8 8 -17 4 -20 -7 -8 -33 11 -33 24 0
13 16 11 29 -4z m-2969 -13 c0 -8 -4 -12 -10 -9 -5 3 -10 10 -10 16 0 5 5 9
10 9 6 0 10 -7 10 -16z m174 0 c9 -25 7 -34 -8 -34 -19 0 -29 17 -22 35 7 20
22 19 30 -1z m2843 -26 c-3 -7 -5 -2 -5 12 0 14 2 19 5 13 2 -7 2 -19 0 -25z
m-2789 10 c0 -7 4 -23 7 -35 6 -19 3 -23 -13 -23 -27 0 -36 29 -16 51 20 22
20 23 22 7z m149 -5 c9 -25 25 -34 39 -22 12 10 29 -5 29 -26 0 -5 16 -10 35
-11 18 -1 36 -6 38 -12 2 -7 10 -12 18 -12 9 0 13 -4 10 -9 -4 -5 4 -7 15 -4
14 4 25 0 31 -11 5 -9 20 -16 33 -16 13 0 26 -4 30 -9 3 -5 19 -12 35 -16 17
-4 35 -15 40 -25 5 -10 26 -21 47 -25 66 -12 83 -39 32 -50 -21 -5 -36 -2 -48
9 -10 9 -29 16 -42 16 -30 0 -70 29 -51 36 6 3 12 10 12 15 0 15 -22 10 -43
-8 -14 -13 -21 -15 -24 -6 -11 31 -38 53 -53 43 -9 -6 -11 -13 -5 -17 6 -5 15
-17 21 -28 6 -12 24 -21 42 -23 35 -4 57 -25 48 -47 -8 -23 -34 -18 -61 10
-15 17 -25 21 -27 14 -6 -18 -39 -3 -45 21 -6 23 -5 23 -35 11 -21 -8 -26 -5
-37 20 -8 18 -17 26 -24 22 -21 -13 -42 -8 -53 12 -5 11 -17 19 -26 17 -9 -1
-23 7 -32 19 -16 23 -12 44 6 33 6 -4 14 -1 18 6 5 8 10 3 14 -15 6 -24 11
-27 36 -22 22 5 30 2 35 -12 3 -10 15 -21 25 -24 11 -3 18 -2 15 3 -3 4 2 11
11 14 11 4 15 2 12 -6 -3 -7 3 -22 13 -32 19 -19 19 -19 19 12 0 33 -26 57
-52 47 -7 -3 -18 5 -23 17 -7 16 -17 22 -32 20 -18 -3 -23 2 -23 17 0 21 -9
25 -44 21 -24 -2 -37 19 -23 36 17 19 37 17 44 -3z m111 5 c17 -17 15 -28 -4
-28 -8 0 -12 5 -9 10 3 6 1 10 -4 10 -6 0 -11 5 -11 10 0 14 13 13 28 -2z
m2672 2 c0 -5 -4 -10 -10 -10 -5 0 -10 5 -10 10 0 6 5 10 10 10 6 0 10 -4 10
-10z m-3100 -31 c0 -5 -4 -9 -10 -9 -5 0 -10 7 -10 16 0 8 5 12 10 9 6 -3 10
-10 10 -16z m2529 -9 c-6 -5 -9 -15 -6 -24 8 -20 -3 -20 -29 -1 -18 15 -18 15
-1 29 11 8 26 12 34 9 11 -4 12 -8 2 -13z m81 10 c0 -5 -4 -10 -10 -10 -5 0
-7 -6 -4 -14 4 -11 0 -13 -15 -9 -21 5 -28 23 -14 36 10 11 43 8 43 -3z m63 3
c8 -7 -11 -33 -24 -33 -5 0 -9 9 -9 20 0 19 20 27 33 13z m-2183 -18 c0 -8 -2
-15 -4 -15 -2 0 -6 7 -10 15 -3 8 -1 15 4 15 6 0 10 -7 10 -15z m1958 -15 c-1
-36 -10 -38 -38 -7 l-21 22 28 6 c15 4 29 7 30 8 1 0 1 -12 1 -29z m285 24 c9
-9 -4 -35 -14 -28 -5 3 -9 12 -9 20 0 14 12 19 23 8z m47 -4 c0 -5 -2 -10 -4
-10 -3 0 -8 5 -11 10 -3 6 -1 10 4 10 6 0 11 -4 11 -10z m-2727 -14 c6 -15 -1
-26 -15 -26 -4 0 -8 9 -8 20 0 23 15 27 23 6z m187 -22 c0 -17 -6 -24 -19 -24
-21 0 -36 40 -19 51 19 12 38 -2 38 -27z m300 26 c0 -5 -5 -10 -11 -10 -5 0
-7 5 -4 10 3 6 8 10 11 10 2 0 4 -4 4 -10z m2960 -16 c0 -14 2 -13 16 0 8 9
18 16 21 16 7 0 -8 -63 -18 -76 -5 -6 -6 -13 -3 -17 3 -3 -4 -10 -15 -17 -12
-6 -21 -7 -21 -1 0 5 6 12 13 14 9 4 8 8 -3 16 -27 20 -40 13 -34 -18 6 -27 4
-28 -21 -23 -26 5 -27 3 -20 -27 8 -36 -5 -41 -34 -12 -17 17 -20 18 -26 4 -3
-9 -2 -19 3 -22 5 -3 9 -14 9 -23 0 -13 -4 -15 -19 -7 -11 6 -22 17 -25 25
-11 30 -25 13 -20 -26 5 -37 4 -39 -14 -29 -10 5 -19 19 -19 29 0 11 -5 20
-10 20 -12 0 -8 45 5 57 4 4 5 3 2 -3 -8 -13 20 -27 34 -18 5 3 9 14 9 25 0
19 1 19 16 4 15 -15 18 -14 30 4 8 11 21 18 28 15 10 -4 16 3 18 18 2 15 9 22
21 20 10 -2 17 3 17 13 0 9 7 18 15 21 8 4 12 11 9 16 -7 12 16 29 28 22 4 -3
8 -12 8 -20z m-1136 -1 c6 -15 8 -15 16 -3 5 8 12 11 17 7 4 -5 1 -12 -7 -17
-9 -6 -19 -5 -24 0 -19 19 -29 10 -12 -9 24 -27 6 -33 -24 -9 -24 19 -24 20
-5 34 25 18 31 18 39 -3z m-2250 -29 c4 -9 4 -19 2 -21 -8 -8 -26 8 -26 23 0
19 16 18 24 -2z m2142 1 c-3 -8 -1 -15 4 -15 6 0 10 -7 10 -15 0 -19 -19 -19
-45 1 -20 15 -20 15 -1 30 26 18 40 18 32 -1z m844 5 c0 -5 -4 -10 -10 -10 -5
0 -10 5 -10 10 0 6 5 10 10 10 6 0 10 -4 10 -10z m53 3 c-7 -2 -19 -2 -25 0
-7 3 -2 5 12 5 14 0 19 -2 13 -5z m-953 -13 c0 -5 -4 -10 -10 -10 -5 0 -10 5
-10 10 0 6 5 10 10 10 6 0 10 -4 10 -10z m100 0 c13 -8 13 -10 -2 -10 -9 0
-20 5 -23 10 -8 13 5 13 25 0z m378 -8 c3 -11 -44 -29 -54 -19 -8 7 27 38 39
34 6 -2 12 -8 15 -15z m287 8 c3 -5 -1 -10 -10 -10 -9 0 -13 5 -10 10 3 6 8
10 10 10 2 0 7 -4 10 -10z m95 6 c0 -3 -4 -8 -10 -11 -5 -3 -10 -1 -10 4 0 6
5 11 10 11 6 0 10 -2 10 -4z m-3195 -40 c0 -19 -3 -38 -8 -42 -4 -4 -7 11 -7
34 0 23 4 42 8 42 4 0 8 -15 7 -34z m145 13 c0 -5 -4 -9 -10 -9 -5 0 -10 7
-10 16 0 8 5 12 10 9 6 -3 10 -10 10 -16z m2597 4 c5 -13 -14 -17 -51 -13 -19
2 -66 -18 -77 -33 -3 -4 -11 -1 -18 7 -10 11 -8 18 8 33 23 22 132 26 138 6z
m126 2 c1 -5 -6 -11 -15 -13 -11 -2 -18 3 -18 13 0 17 30 18 33 0z m57 0 c0
-8 -6 -15 -14 -15 -17 0 -28 14 -19 24 12 12 33 6 33 -9z m45 5 c3 -5 -1 -10
-9 -10 -9 0 -16 5 -16 10 0 6 4 10 9 10 6 0 13 -4 16 -10z m70 -10 c-32 -7
-48 -3 -41 9 3 4 20 5 38 2 l33 -5 -30 -6z m-3080 1 c3 -5 1 -12 -5 -16 -5 -3
-10 1 -10 9 0 18 6 21 15 7z m365 -33 c0 -14 -27 -8 -41 8 -10 13 -10 17 1 24
13 8 39 -13 40 -32z m1815 32 c-3 -5 -12 -7 -20 -3 -21 7 -19 13 6 13 11 0 18
-4 14 -10z m1128 3 c-7 -2 -19 -2 -25 0 -7 3 -2 5 12 5 14 0 19 -2 13 -5z
m127 -3 c0 -5 -5 -10 -11 -10 -5 0 -7 5 -4 10 3 6 8 10 11 10 2 0 4 -4 4 -10z
m-2575 -10 c8 -13 -5 -13 -25 0 -13 8 -13 10 2 10 9 0 20 -4 23 -10z m1509
-11 c-3 -5 -13 -9 -22 -9 -13 0 -14 -2 -3 -9 23 -15 -5 -22 -32 -8 -23 12 -24
15 -11 29 16 15 78 13 68 -3z m251 12 c3 -5 1 -12 -5 -16 -15 -9 -13 -38 3
-29 6 4 8 3 4 -1 -13 -15 -39 -15 -33 0 7 20 -32 26 -44 7 -6 -11 -9 -12 -10
-4 0 7 -5 10 -10 7 -6 -3 -7 -18 -4 -32 5 -18 3 -24 -5 -19 -6 4 -11 14 -11
21 0 8 -6 12 -13 9 -8 -3 -19 2 -26 10 -11 13 -8 16 16 22 15 4 37 7 47 6 10
0 28 6 40 14 24 16 42 18 51 5z m-2535 -53 c0 -38 -3 -49 -11 -41 -10 10 -4
93 7 93 2 0 4 -23 4 -52z m2190 43 c0 -12 -20 -25 -27 -18 -7 7 6 27 18 27 5
0 9 -4 9 -9z m1117 3 c-3 -3 -12 -4 -19 -1 -8 3 -5 6 6 6 11 1 17 -2 13 -5z
m-3149 -22 c6 -18 -15 -14 -22 4 -4 10 -1 14 6 12 6 -2 14 -10 16 -16z m703
-18 c6 -8 19 -14 29 -14 23 0 55 -36 40 -45 -6 -3 -19 4 -30 17 -11 13 -19 19
-20 15 0 -8 -90 50 -90 58 0 9 60 -17 71 -31z m2334 26 c3 -5 -1 -10 -10 -10
-9 0 -13 5 -10 10 3 6 8 10 10 10 2 0 7 -4 10 -10z m-2857 -27 c4 -29 -23 -31
-38 -4 -15 28 -13 33 13 29 14 -2 23 -11 25 -25z m1646 12 c-7 -17 -20 -20
-29 -6 -3 5 3 12 12 14 10 3 19 5 20 6 1 0 0 -6 -3 -14z m1176 11 c0 -3 -4 -8
-10 -11 -5 -3 -10 -1 -10 4 0 6 5 11 10 11 6 0 10 -2 10 -4z m-3103 -66 c1
-28 -2 -50 -7 -50 -6 0 -10 26 -10 57 0 68 12 63 17 -7z m2101 25 c-16 -19
-25 -22 -39 -15 -9 6 -20 15 -22 22 -3 8 -6 6 -6 -4 -1 -10 -8 -18 -17 -18 -9
0 -14 7 -12 18 2 12 13 17 40 17 20 0 39 3 43 7 4 4 13 4 20 2 10 -4 9 -11 -7
-29z m942 19 c0 -8 -4 -12 -10 -9 -5 3 -10 10 -10 16 0 5 5 9 10 9 6 0 10 -7
10 -16z m-2883 -9 c8 -22 -6 -33 -17 -15 -13 20 -12 30 0 30 6 0 13 -7 17 -15z
m158 5 c-3 -5 1 -10 9 -10 19 0 29 -17 22 -35 -7 -20 -31 -9 -44 20 -8 18 -8
25 1 29 18 7 19 7 12 -4z m2680 0 c-3 -5 -12 -10 -18 -10 -7 0 -6 4 3 10 19
12 23 12 15 0z m-697 -11 c-23 -13 -23 -30 -1 -22 10 4 14 2 10 -4 -4 -6 -18
-10 -32 -10 -13 0 -22 3 -19 8 3 5 -2 6 -10 3 -11 -4 -16 0 -16 15 0 18 6 21
43 21 33 -1 38 -3 25 -11z m316 5 c22 -8 20 -21 -4 -29 -25 -8 -41 1 -33 20 6
16 13 18 37 9z m74 -6 c-7 -19 -38 -22 -38 -4 0 10 9 16 21 16 12 0 19 -5 17
-12z m62 3 c0 -11 -29 -35 -35 -29 -10 9 7 38 21 38 8 0 14 -4 14 -9z m55 -1
c3 -5 -1 -10 -9 -10 -9 0 -16 5 -16 10 0 6 4 10 9 10 6 0 13 -4 16 -10z m50 0
c3 -5 -1 -10 -10 -10 -9 0 -13 5 -10 10 3 6 8 10 10 10 2 0 7 -4 10 -10z m55
6 c0 -11 -19 -15 -25 -6 -3 5 1 10 9 10 9 0 16 -2 16 -4z m-2846 -76 c6 -16
-9 -48 -19 -38 -11 10 -18 77 -10 95 7 15 9 13 15 -12 4 -16 10 -37 14 -45z
m2474 34 c-8 -7 -25 -10 -41 -7 l-28 6 27 18 c21 14 31 15 42 7 11 -9 11 -14
0 -24z m-2144 6 c7 0 18 -12 25 -26 10 -23 9 -25 -11 -22 -24 3 -51 45 -41 62
4 6 8 6 11 -2 2 -7 9 -12 16 -12z m-167 -5 c3 -9 3 -19 -1 -22 -8 -9 -37 18
-30 28 8 14 24 11 31 -6z m1588 5 c3 -5 -1 -10 -10 -10 -9 0 -13 5 -10 10 3 6
8 10 10 10 2 0 7 -4 10 -10z m631 -26 c-11 -8 -14 -14 -8 -14 7 0 12 -5 12
-12 0 -6 -9 -3 -20 7 -25 22 -26 42 -2 48 28 6 40 -12 18 -29z m751 -3 c2 -3
9 4 16 13 9 12 20 16 33 12 15 -4 19 -16 21 -51 2 -53 -6 -56 -31 -14 -28 48
-54 22 -31 -33 12 -29 -9 -20 -28 11 -18 31 -21 58 -11 86 6 16 8 16 17 -1 5
-11 12 -21 14 -23z m289 23 c-1 -9 -10 -20 -19 -26 -9 -5 -17 -15 -17 -22 0
-15 -62 -66 -80 -66 -20 0 -6 45 15 48 11 2 26 11 33 20 7 10 18 17 25 17 7 0
16 10 22 23 11 26 24 29 21 6z m-3356 -69 c4 -5 4 -18 1 -28 -6 -16 -9 -16
-18 -5 -13 16 -16 32 -13 78 l2 35 10 -35 c5 -19 13 -39 18 -45z m2060 65 c0
-5 -3 -10 -7 -10 -5 0 -19 -3 -33 -6 -24 -5 -24 -5 -6 10 22 18 46 21 46 6z
m939 3 c-3 -20 2 -44 9 -40 4 3 7 -15 7 -39 0 -33 -3 -43 -13 -39 -8 3 -16 5
-18 5 -2 0 -4 8 -4 18 0 10 -4 22 -9 28 -6 5 -4 21 4 42 13 29 27 44 24 25z
m-2149 -43 c41 -22 93 -48 115 -59 46 -21 77 -51 53 -51 -8 0 -23 9 -32 19
-10 11 -32 23 -49 27 -18 4 -46 17 -63 30 -17 13 -38 24 -47 24 -17 0 -79 49
-62 50 6 0 44 -18 85 -40z m1030 30 c0 -5 -9 -10 -20 -10 -11 0 -20 -5 -20
-12 0 -9 -3 -9 -11 -1 -6 6 -8 16 -5 22 9 14 56 15 56 1z m110 2 c0 -13 -12
-22 -22 -16 -10 6 -1 24 13 24 5 0 9 -4 9 -8z m969 -104 c1 -52 -14 -47 -28 8
-9 33 -9 50 -2 57 6 6 12 20 12 32 2 30 18 -54 18 -97z m-2799 87 c19 -23 1
-39 -21 -19 -10 9 -19 21 -19 26 0 13 27 9 40 -7z m198 -19 c8 -15 11 -30 8
-33 -10 -11 -56 20 -56 37 0 39 28 37 48 -4z m1418 7 c-10 -10 -19 5 -10 18 6
11 8 11 12 0 2 -7 1 -15 -2 -18z m479 17 c19 -8 19 -9 1 -9 -11 -1 -27 -8 -36
-16 -19 -17 -50 -10 -50 10 0 8 12 16 28 18 15 2 29 4 32 5 3 0 14 -3 25 -8z
m1182 -27 c-3 -10 -5 -4 -5 12 0 17 2 24 5 18 2 -7 2 -21 0 -30z m-2843 -18
c-9 -22 -42 -28 -59 -11 -18 18 -19 23 -3 40 16 17 70 -8 62 -29z m164 23 c7
-9 28 -20 47 -24 29 -5 65 -38 65 -59 0 -12 -23 -4 -38 15 -18 21 -102 53
-102 39 0 -14 -15 -10 -39 10 -21 18 -21 20 -4 29 26 15 56 11 71 -10z m2629
0 c-3 -8 -6 -5 -6 6 -1 11 2 17 5 13 3 -3 4 -12 1 -19z m-3337 -14 c0 -8 10
-24 22 -36 l23 -23 6 30 6 30 12 -30 c17 -39 22 -93 11 -100 -5 -3 -17 11 -27
31 -17 34 -40 45 -37 17 3 -24 -14 -13 -29 20 -15 32 -12 92 4 81 5 -3 9 -12
9 -20z m1564 10 c4 -9 4 -19 2 -22 -8 -7 -56 8 -56 18 0 5 7 6 17 3 11 -4 14
-3 9 5 -4 7 -1 12 7 12 8 0 18 -7 21 -16z m-1374 -30 c0 -18 -11 -18 -36 1
-16 12 -17 16 -4 24 17 11 40 -3 40 -25z m1697 22 c-3 -8 -1 -17 6 -19 7 -2 9
-8 4 -13 -10 -11 -41 21 -33 35 10 16 29 13 23 -3z m208 6 c6 -4 2 -15 -11
-27 -17 -18 -25 -19 -48 -10 -35 15 -19 31 44 44 3 0 10 -3 15 -7z m379 -47
c8 -50 2 -67 -18 -59 -21 8 -27 47 -15 83 14 40 25 32 33 -24z m66 7 c0 -52
-14 -72 -30 -43 -8 17 -8 30 0 57 14 42 30 35 30 -14z m63 2 c5 -24 1 -36 -13
-49 -11 -10 -20 -16 -20 -12 0 3 -3 13 -6 21 -5 12 -2 15 10 10 9 -3 16 -1 16
5 0 6 -7 11 -15 11 -18 0 -18 2 -3 35 13 30 23 23 31 -21z m150 -51 c-6 -27
-23 -31 -24 -5 0 9 -2 25 -4 36 -2 10 2 30 8 44 12 26 12 26 19 -14 3 -21 4
-49 1 -61z m107 36 c0 -44 -9 -54 -26 -31 -17 21 -18 64 -2 80 17 17 28 -3 28
-49z m-1200 30 c0 -8 -32 -29 -44 -29 -10 0 -6 26 5 37 12 12 39 7 39 -8z
m166 -6 c-10 -10 -19 5 -10 18 6 11 8 11 12 0 2 -7 1 -15 -2 -18z m580 -40 c7
-48 -11 -67 -33 -37 -8 10 -19 18 -24 17 -5 -2 -9 2 -9 7 0 6 4 10 10 10 5 0
13 12 16 28 14 57 28 48 40 -25z m298 -10 c-24 -39 -42 9 -20 56 l11 24 9 -32
c6 -21 6 -39 0 -48z m101 43 c7 -37 -1 -76 -15 -76 -13 0 -23 64 -15 89 10 31
23 25 30 -13z m-2971 2 c3 -13 7 -45 10 -73 3 -27 10 -83 16 -124 11 -81 7
-100 -11 -55 -23 58 -38 141 -39 207 0 64 15 92 24 45z m549 8 c16 -13 15 -46
-2 -46 -11 0 -51 40 -51 50 0 14 32 12 53 -4z m1805 2 c-3 -7 -13 -15 -23 -16
-15 -4 -16 -2 -4 12 17 19 32 21 27 4z m460 -5 c0 -10 -2 -35 -5 -57 -6 -43
-23 -32 -23 16 0 46 25 84 28 41z m-2045 -8 c10 4 20 -1 27 -16 11 -19 10 -21
-4 -16 -9 4 -16 2 -16 -4 0 -6 14 -7 34 -3 31 5 36 3 50 -25 9 -17 19 -31 22
-31 2 0 0 9 -6 19 -12 24 -13 31 -1 31 13 0 22 -30 16 -51 -5 -15 -10 -16 -31
-7 -13 6 -24 14 -24 18 0 4 -15 13 -32 20 -54 20 -98 44 -98 53 0 4 4 6 9 3 5
-3 12 2 15 11 5 13 9 14 15 5 4 -7 15 -10 24 -7z m1714 1 c-3 -7 -2 -17 3 -22
8 -9 14 -44 11 -71 -2 -21 -25 -14 -44 12 -16 22 -16 28 -3 60 14 32 45 53 33
21z m973 -11 c-7 -9 -15 -13 -18 -10 -3 2 1 11 8 20 7 9 15 13 18 10 3 -2 -1
-11 -8 -20z m-3410 -16 c0 -10 -7 -19 -15 -19 -16 0 -19 9 -9 34 8 20 24 11
24 -15z m368 19 c16 -16 15 -39 -1 -32 -7 2 -18 13 -25 24 -10 16 -10 20 1 20
7 0 18 -5 25 -12z m1216 -3 c-4 -8 -1 -15 5 -15 6 0 11 -4 11 -10 0 -5 -13
-10 -30 -10 -36 0 -38 13 -8 34 28 20 29 20 22 1z m536 -1 c0 -6 -65 -34 -80
-34 -5 0 -10 7 -10 15 0 18 20 20 20 3 0 -7 5 -5 11 5 9 15 59 25 59 11z
m1160 -26 c0 -13 -36 -27 -49 -18 -10 6 -8 13 9 30 18 18 24 20 31 9 5 -8 9
-17 9 -21z m171 -1 c-8 -8 -11 -7 -11 4 0 20 13 34 18 19 3 -7 -1 -17 -7 -23z
m-3182 -21 c6 -25 11 -52 11 -60 0 -27 -29 -17 -36 12 -4 15 -11 33 -17 40 -6
8 -6 12 2 12 6 0 11 9 11 20 0 36 17 21 29 -24z m331 13 c0 -7 -25 -19 -41
-19 -5 0 -9 11 -9 25 0 23 2 24 25 13 14 -6 25 -15 25 -19z m290 9 c0 -6 -6
-5 -15 2 -8 7 -15 14 -15 16 0 2 7 1 15 -2 8 -4 15 -11 15 -16z m1000 17 c0
-8 -62 -37 -67 -31 -11 11 20 36 43 36 13 0 24 -2 24 -5z m485 -38 c4 5 5 0 2
-10 -4 -10 -7 -30 -7 -43 0 -18 -5 -24 -17 -22 -29 5 -45 35 -38 71 11 48 16
51 34 23 10 -14 21 -23 26 -19z m-1934 23 c5 0 9 -12 9 -26 0 -23 -2 -25 -16
-14 -8 8 -20 22 -26 33 -9 17 -8 19 7 14 9 -4 21 -7 26 -7z m1243 -15 c-16
-24 -54 -35 -54 -15 0 9 47 39 63 40 4 0 0 -11 -9 -25z m1679 0 c-21 -28 -33
-32 -33 -10 0 12 24 29 48 34 2 1 -5 -10 -15 -24z m-2352 -9 c11 -14 32 -27
48 -31 31 -7 69 -41 58 -52 -4 -3 -15 0 -24 8 -10 8 -31 21 -48 29 -41 19 -65
40 -65 57 0 19 10 16 31 -11z m-927 -13 c20 -104 19 -126 -5 -82 -12 23 -18
109 -7 109 3 0 9 -12 12 -27z m266 -69 c0 -40 -16 -45 -30 -8 -11 29 -13 87
-3 97 10 11 33 -51 33 -89z m2860 86 c0 -13 -32 -28 -48 -23 -10 4 -10 8 -1
19 13 16 49 19 49 4z m-2155 -10 c3 -5 1 -10 -4 -10 -6 0 -11 5 -11 10 0 6 2
10 4 10 3 0 8 -4 11 -10z m945 0 c0 -5 -2 -10 -4 -10 -2 0 -12 -3 -20 -6 -12
-5 -15 -2 -10 10 7 17 34 22 34 6z m-1471 -49 c-15 -5 -41 28 -32 42 4 6 14 0
25 -14 14 -17 16 -25 7 -28z m147 32 c16 -22 17 -33 4 -33 -5 0 -10 7 -10 15
0 8 -4 15 -10 15 -5 0 -6 -8 -3 -17 6 -16 5 -16 -10 -4 -9 7 -17 20 -17 27 0
20 30 17 46 -3z m299 7 c3 -6 -1 -7 -9 -4 -18 7 -21 14 -7 14 6 0 13 -4 16
-10z m206 -38 c-7 -2 -21 5 -32 16 -29 32 -23 36 13 11 19 -14 26 -25 19 -27z
m596 23 c-28 -25 -57 -33 -57 -16 0 15 42 41 65 41 18 -1 17 -3 -8 -25z m173
16 c0 -12 -20 -25 -27 -18 -7 7 6 27 18 27 5 0 9 -4 9 -9z m305 -1 c3 -5 12
-7 20 -3 9 3 15 -1 15 -11 0 -9 -4 -16 -10 -16 -5 0 -10 -13 -10 -30 0 -40
-30 -41 -48 -1 -11 24 -11 33 0 50 14 23 24 26 33 11z m1053 -8 c2 -6 -9 -17
-25 -23 -15 -6 -43 -19 -60 -27 -24 -12 -36 -13 -44 -5 -8 8 -5 14 12 24 13 7
32 13 42 14 10 1 26 9 35 18 18 18 33 18 40 -1z m85 -8 c-9 -15 -19 -21 -21
-15 -4 13 16 41 29 41 5 0 2 -12 -8 -26z m-3363 -11 c0 -21 -3 -24 -9 -14 -5
8 -7 20 -4 28 8 21 13 15 13 -14z m1460 12 c0 -8 -7 -15 -15 -15 -26 0 -18 20
13 29 1 1 2 -6 2 -14z m660 -5 c0 -11 6 -20 13 -20 25 0 36 -21 26 -47 -7 -18
-6 -30 3 -41 11 -13 10 -15 -5 -9 -10 4 -25 7 -33 7 -9 0 -12 5 -9 10 3 6 -1
10 -9 10 -24 0 -27 16 -15 64 12 47 29 62 29 26z m967 3 c-9 -9 -19 -14 -23
-11 -10 10 6 28 24 28 15 0 15 -1 -1 -17z m-2183 -10 c3 -10 8 -23 11 -29 11
-22 -28 -24 -61 -3 -19 11 -34 23 -34 25 0 11 40 2 55 -12 14 -15 15 -14 11
10 -5 29 8 36 18 9z m676 9 c0 -14 -60 -53 -70 -47 -17 11 -11 22 23 39 36 18
47 20 47 8z m-1192 -41 c15 -50 15 -74 0 -69 -26 9 -43 108 -18 108 4 0 12
-17 18 -39z m2642 29 c0 -5 -9 -10 -21 -10 -11 0 -17 5 -14 10 3 6 13 10 21
10 8 0 14 -4 14 -10z m-2458 -17 c21 -19 23 -33 5 -33 -8 0 -19 11 -25 25 -13
29 -6 32 20 8z m162 -8 c20 -30 20 -35 2 -35 -22 0 -60 35 -52 48 12 19 33 14
50 -13z m1111 0 c-31 -26 -55 -32 -55 -16 0 15 42 41 65 41 18 -1 16 -4 -10
-25z m1125 15 c0 -5 -2 -10 -4 -10 -2 0 -12 -3 -20 -6 -12 -5 -15 -2 -10 10 7
17 34 22 34 6z m-60 -9 c0 -12 -28 -22 -34 -12 -3 5 -3 11 1 15 9 9 33 7 33
-3z m393 2 c7 -7 -21 -43 -34 -43 -4 0 -2 11 4 25 12 26 19 30 30 18z m-2838
-81 l4 -47 -14 30 c-17 36 -21 111 -4 82 6 -10 12 -39 14 -65z m1195 54 c-14
-13 -35 -27 -47 -31 -19 -5 -22 -3 -17 12 10 26 34 43 63 43 l26 0 -25 -24z
m975 14 c3 -5 -1 -10 -10 -10 -9 0 -13 5 -10 10 3 6 8 10 10 10 2 0 7 -4 10
-10z m150 0 c-11 -5 -45 -8 -75 -8 l-55 1 55 7 c30 4 64 7 75 8 l20 1 -20 -9z
m55 0 c0 -5 -7 -10 -15 -10 -8 0 -15 5 -15 10 0 6 7 10 15 10 8 0 15 -4 15
-10z m274 4 c32 -12 13 -30 -44 -41 l-25 -4 24 25 c28 29 24 28 45 20z m-2124
-23 c0 -11 5 -23 11 -27 8 -5 6 -10 -5 -16 -11 -6 -25 -2 -46 13 -37 28 -38
33 -5 25 18 -5 25 -2 25 9 0 8 5 15 10 15 6 0 10 -9 10 -19z m403 5 c8 -20 1
-24 -30 -18 -25 5 -25 6 -8 18 24 18 32 18 38 0z m644 7 c-4 -3 -1 -16 7 -28
8 -12 16 -35 18 -51 2 -24 -1 -30 -20 -32 -13 -2 -25 3 -28 12 -3 9 -12 16
-20 16 -19 0 -18 49 1 56 8 4 15 12 15 20 0 8 8 14 17 14 9 0 13 -3 10 -7z
m540 1 c-3 -3 -12 -4 -19 -1 -8 3 -5 6 6 6 11 1 17 -2 13 -5z m-1087 -13 c0
-5 -7 -14 -15 -21 -8 -7 -15 -18 -15 -25 0 -12 -34 -14 -46 -2 -9 9 15 37 41
47 27 12 35 12 35 1z m439 -13 c-5 -41 2 -67 16 -62 8 3 16 0 18 -7 2 -8 8
-28 14 -45 9 -29 9 -30 -14 -26 -12 2 -23 8 -23 13 0 4 -12 9 -27 11 -36 4
-39 23 -14 81 19 45 34 61 30 35z m521 0 c0 -4 -9 -8 -21 -8 -11 0 -18 4 -15
8 3 5 12 9 21 9 8 0 15 -4 15 -9z m590 -2 c0 -8 -14 -16 -32 -20 -49 -9 -53
-8 -56 8 -2 10 7 16 30 19 18 2 39 5 46 5 6 1 12 -4 12 -12z m-2360 -18 c0 -6
-7 -7 -16 -4 -9 3 -18 6 -20 6 -3 0 -3 4 1 10 7 11 35 2 35 -12z m147 4 c18
-19 52 -36 65 -34 4 1 12 -7 18 -18 8 -16 8 -20 -4 -20 -8 0 -19 6 -23 14 -4
8 -29 24 -54 34 -26 11 -50 25 -53 31 -12 19 32 12 51 -7z m918 -6 c-27 -22
-55 -25 -55 -5 0 13 32 28 60 29 l25 0 -30 -24z m1480 14 c3 -6 -6 -15 -20
-20 -37 -14 -40 -13 -20 10 20 22 31 25 40 10z m-2672 -31 c21 -37 22 -55 3
-62 -15 -6 -25 16 -31 66 -4 35 6 34 28 -4z m2367 10 c0 -5 -39 -9 -86 -9 -57
0 -83 3 -79 11 4 6 32 9 65 7 32 -1 62 0 65 4 9 9 35 -1 35 -13z m-1590 0 c0
-5 -5 -7 -12 -3 -8 5 -9 2 -5 -10 6 -14 3 -17 -9 -12 -8 3 -23 6 -32 6 -10 1
-4 7 13 15 38 17 45 18 45 4z m250 3 c0 -4 -18 -19 -41 -32 -23 -14 -56 -38
-75 -53 -18 -16 -37 -26 -42 -23 -5 3 -19 -8 -31 -24 -12 -17 -28 -30 -36 -30
-7 0 -27 -11 -43 -25 -17 -14 -36 -25 -44 -25 -8 0 -23 -9 -33 -20 -11 -12
-34 -28 -52 -37 -18 -8 -33 -19 -33 -24 0 -5 -7 -9 -16 -9 -23 0 -11 23 21 40
16 8 36 22 45 30 10 8 41 29 69 45 29 17 63 40 77 53 14 12 29 22 34 22 5 0
23 14 40 30 17 17 39 30 49 30 10 0 26 11 35 24 8 14 26 27 38 29 13 2 26 5
31 6 4 0 7 -3 7 -7z m1090 -2 c0 -5 -10 -10 -22 -10 -19 0 -20 2 -8 10 19 13
30 13 30 0z m70 -6 c0 -2 -13 -4 -30 -4 -16 0 -30 4 -30 8 0 5 14 7 30 4 17
-2 30 -6 30 -8z m-1660 -4 c0 -5 -5 -10 -11 -10 -5 0 -7 5 -4 10 3 6 8 10 11
10 2 0 4 -4 4 -10z m1537 4 c-3 -3 -12 -4 -19 -1 -8 3 -5 6 6 6 11 1 17 -2 13
-5z m513 -16 c-24 -19 -40 -23 -40 -10 0 15 19 28 41 28 l21 0 -22 -18z m-820
8 c0 -2 -9 -6 -20 -9 -11 -3 -18 -1 -14 4 5 9 34 13 34 5z m-1555 -16 c3 -5 2
-10 -4 -10 -5 0 -13 5 -16 10 -3 6 -2 10 4 10 5 0 13 -4 16 -10z m295 0 c0 -5
-4 -10 -10 -10 -5 0 -10 5 -10 10 0 6 5 10 10 10 6 0 10 -4 10 -10z m340 1 c0
-12 -28 -41 -39 -41 -5 0 -26 -14 -47 -31 -24 -19 -40 -26 -42 -19 -5 14 19
40 39 43 8 2 26 15 41 30 27 27 48 35 48 18z m280 0 c0 -10 -45 -41 -60 -41
-19 0 -10 31 13 40 29 12 47 12 47 1z m1354 -15 c-10 -8 -21 -12 -23 -10 -3 2
4 11 15 18 10 8 21 12 23 10 3 -2 -4 -11 -15 -18z m-2378 -28 c16 -30 12 -50
-6 -32 -14 14 -31 76 -19 69 5 -4 16 -20 25 -37z m1179 22 c-7 -12 44 -90 59
-90 6 0 3 -5 -7 -11 -13 -8 -22 -7 -32 1 -8 6 -23 9 -35 5 -16 -5 -20 -2 -22
17 -3 55 14 104 33 92 5 -3 7 -9 4 -14z m500 0 c-3 -5 -12 -10 -18 -10 -7 0
-6 4 3 10 19 12 23 12 15 0z m-1489 -28 c-4 -3 -14 2 -24 12 -16 18 -16 18 6
6 13 -6 21 -14 18 -18z m400 13 c-10 -8 -23 -12 -29 -8 -11 7 12 23 33 23 12
-1 11 -4 -4 -15z m1674 5 c0 -5 -2 -10 -4 -10 -3 0 -8 5 -11 10 -3 6 -1 10 4
10 6 0 11 -4 11 -10z m40 0 c0 -5 -7 -10 -16 -10 -8 0 -12 5 -9 10 3 6 10 10
16 10 5 0 9 -4 9 -10z m-2235 -20 c3 -5 1 -10 -4 -10 -6 0 -11 5 -11 10 0 6 2
10 4 10 3 0 8 -4 11 -10z m840 -26 c-19 -17 -31 -22 -38 -15 -15 15 10 41 41
41 l25 0 -28 -26z m221 -85 c18 -20 18 -29 -2 -29 -9 0 -18 9 -21 21 -4 14
-11 18 -22 14 -9 -4 -20 -7 -26 -8 -15 -3 -18 63 -4 89 12 23 13 22 37 -24 13
-26 31 -54 38 -63z m-582 89 c-3 -5 -10 -5 -16 -2 -7 5 -9 2 -6 -8 5 -11 0
-14 -18 -10 -24 4 -30 13 -17 25 9 10 63 5 57 -5z m-1204 -19 c0 -6 -4 -7 -10
-4 -5 3 -10 11 -10 16 0 6 5 7 10 4 6 -3 10 -11 10 -16z m748 -7 c2 -12 -1
-22 -7 -22 -6 0 -11 4 -11 9 0 5 -3 17 -7 27 -4 12 -2 15 8 12 8 -2 15 -14 17
-26z m-608 -57 c0 -5 -9 1 -20 15 -11 14 -20 30 -20 35 0 6 9 -1 20 -15 11
-14 20 -29 20 -35z m980 46 c0 -12 -20 -25 -27 -18 -7 7 6 27 18 27 5 0 9 -4
9 -9z m128 -11 c-14 -21 -45 -36 -55 -26 -10 10 29 46 49 46 16 0 16 -3 6 -20z
m225 -11 c-12 -12 -26 -18 -32 -15 -15 9 -4 25 23 36 30 11 33 3 9 -21z m218
-90 c18 -14 20 -19 8 -19 -9 0 -22 7 -29 15 -7 9 -24 14 -39 13 -21 -3 -27 2
-29 23 -2 14 2 38 8 54 l11 29 23 -49 c13 -26 34 -56 47 -66z m1433 96 c-6
-16 -34 -21 -34 -7 0 13 11 22 26 22 8 0 11 -6 8 -15z m-2407 -27 c46 -20 70
-42 64 -59 -19 -49 -34 -56 -128 -63 -102 -8 -109 -4 -76 44 24 35 86 90 100
90 7 0 25 -5 40 -12z m463 -2 c0 -7 -7 -19 -15 -26 -13 -10 -18 -11 -28 -1 -9
10 -8 15 7 27 25 18 36 18 36 0z m-125 -6 c-3 -5 -10 -10 -16 -10 -5 0 -9 5
-9 10 0 6 7 10 16 10 8 0 12 -4 9 -10z m500 -56 c12 -23 11 -28 -6 -45 -30
-30 -42 -14 -34 45 8 59 19 81 23 48 2 -12 9 -34 17 -48z m599 39 c-6 -27 -6
-28 11 -8 9 11 14 15 11 8 -8 -15 10 -27 19 -13 4 6 12 5 21 -5 9 -8 20 -13
25 -9 5 3 18 -5 29 -18 23 -27 26 -90 6 -111 -12 -12 -12 -22 -1 -71 l14 -58
-37 -15 c-96 -40 -189 -41 -234 -2 -14 13 -17 19 -7 16 9 -3 16 1 16 9 0 7 -5
10 -11 6 -6 -3 3 12 20 33 17 22 36 50 43 63 7 13 21 22 35 22 15 0 33 12 50
34 14 19 26 37 26 40 0 3 -18 11 -40 17 -44 13 -48 23 -22 52 17 19 16 20 -8
8 l-25 -12 24 20 c32 28 43 26 35 -6z m-744 10 c0 -5 -11 -16 -25 -26 -17 -12
-26 -14 -31 -5 -4 6 1 17 11 25 20 14 45 18 45 6z m1578 -10 c-2 -9 -8 -18
-15 -20 -7 -3 -9 3 -6 16 6 25 26 28 21 4z m-1888 -33 c-12 -23 -30 -27 -30
-7 0 17 10 27 27 27 11 0 11 -5 3 -20z m359 -4 c-9 -19 -7 -29 6 -50 17 -26
17 -28 -3 -46 -15 -14 -23 -17 -28 -8 -13 20 -4 92 13 110 22 24 25 23 12 -6z
m531 19 c0 -2 -10 -9 -22 -15 -22 -11 -22 -10 -4 4 21 17 26 19 26 11z m910
-4 c0 -12 -20 -25 -27 -18 -7 7 6 27 18 27 5 0 9 -4 9 -9z m220 2 c-1 -21 -22
-36 -56 -40 -43 -4 -39 5 11 31 33 18 45 20 45 9z m-1805 -40 c-20 -18 -30
-22 -33 -13 -5 15 25 40 47 40 11 -1 7 -9 -14 -27z m525 7 c0 -5 -4 -10 -10
-10 -5 0 -10 5 -10 10 0 6 5 10 10 10 6 0 10 -4 10 -10z m-1975 -16 c-9 -9
-19 -13 -23 -10 -3 4 0 11 8 16 24 15 33 11 15 -6z m1183 4 c-6 -16 -36 -34
-44 -25 -9 9 15 37 33 37 8 0 13 -5 11 -12z m1947 2 c-3 -5 -11 -10 -16 -10
-6 0 -7 5 -4 10 3 6 11 10 16 10 6 0 7 -4 4 -10z m-1495 -4 c0 -3 -4 -8 -10
-11 -5 -3 -10 -1 -10 4 0 6 5 11 10 11 6 0 10 -2 10 -4z m400 -5 c0 -5 -10
-11 -22 -14 -22 -6 -22 -6 -4 8 23 17 26 18 26 6z m670 -1 c0 -5 -5 -10 -11
-10 -5 0 -7 5 -4 10 3 6 8 10 11 10 2 0 4 -4 4 -10z m390 2 c0 -5 -7 -17 -15
-28 -14 -19 -14 -19 -15 2 0 11 3 24 7 27 9 10 23 9 23 -1z m-1717 -34 c-13
-12 -25 -19 -29 -15 -10 10 16 37 34 37 13 0 12 -4 -5 -22z m137 0 c0 -17 3
-19 9 -9 6 10 10 10 16 1 4 -6 -1 -18 -11 -26 -13 -10 -15 -17 -7 -20 8 -4 5
-12 -8 -25 -11 -11 -24 -17 -29 -14 -21 13 -3 115 20 115 5 0 10 -10 10 -22z
m223 9 c4 3 7 1 7 -5 0 -17 -16 -15 -31 6 -12 15 -12 16 2 5 9 -7 19 -10 22
-6z m1047 3 c0 -5 -4 -10 -10 -10 -5 0 -10 5 -10 10 0 6 5 10 10 10 6 0 10 -4
10 -10z m117 -12 c-3 -8 -6 -5 -6 6 -1 11 2 17 5 13 3 -3 4 -12 1 -19z m103
14 c0 -5 -7 -17 -15 -28 -14 -19 -14 -19 -15 2 0 11 3 24 7 27 9 10 23 9 23
-1z m-1890 -16 c0 -8 -7 -16 -15 -20 -15 -5 -21 14 -8 27 11 12 23 8 23 -7z
m123 -6 c-17 -20 -43 -27 -43 -12 0 14 23 32 42 32 17 0 17 -1 1 -20z m1987 8
c-1 -29 -17 -39 -61 -36 l-44 4 45 21 c54 26 60 27 60 11z m-1260 -8 c0 -5 -5
-10 -11 -10 -5 0 -7 5 -4 10 3 6 8 10 11 10 2 0 4 -4 4 -10z m-512 -11 c-21
-12 -24 -29 -5 -29 8 0 14 -7 14 -15 0 -8 -4 -12 -8 -10 -8 6 -19 -19 -19 -45
0 -25 -20 -36 -31 -19 -18 29 -10 78 18 104 15 14 32 25 38 25 5 0 2 -5 -7
-11z m-143 -19 c-20 -22 -35 -26 -35 -10 0 6 10 15 23 20 32 13 32 12 12 -10z
m1455 -1 c0 -5 -4 -9 -10 -9 -5 0 -10 7 -10 16 0 8 5 12 10 9 6 -3 10 -10 10
-16z m-1713 -6 c-9 -9 -19 -14 -23 -11 -10 10 6 28 24 28 15 0 15 -1 -1 -17z
m118 -3 c-21 -23 -35 -26 -35 -6 0 15 14 24 39 25 11 1 10 -4 -4 -19z m1704
-16 c-15 -18 -22 -13 -13 10 3 9 10 13 16 10 5 -3 4 -12 -3 -20z m191 22 c0
-2 -3 -11 -6 -20 -9 -24 -33 -20 -27 4 4 16 33 30 33 16z m-519 -29 c-10 -9
-11 -8 -5 6 3 10 9 15 12 12 3 -3 0 -11 -7 -18z m429 8 c0 -16 -27 -32 -37
-21 -7 7 16 36 28 36 5 0 9 -7 9 -15z m-1980 -10 c-7 -9 -15 -13 -17 -11 -7 7
7 26 19 26 6 0 6 -6 -2 -15z m120 0 c0 -17 -27 -32 -37 -21 -4 3 2 13 13 21
24 18 24 18 24 0z m-1030 -10 c-12 -15 -30 -12 -30 6 0 5 10 9 21 9 18 0 19
-2 9 -15z m1139 -16 c-9 -5 -15 -4 -18 2 -2 6 3 15 10 20 9 5 15 4 18 -2 2 -6
-3 -15 -10 -20z m135 -6 c-3 -76 -5 -83 -18 -83 -24 0 -29 19 -16 66 14 49 36
60 34 17z m1366 17 c0 -5 -2 -10 -4 -10 -3 0 -8 5 -11 10 -3 6 -1 10 4 10 6 0
11 -4 11 -10z m460 -2 c0 -27 -16 -34 -60 -30 l-45 5 40 18 c48 21 65 23 65 7z
m-3130 -12 c0 -8 -4 -18 -10 -21 -5 -3 -10 3 -10 14 0 12 5 21 10 21 6 0 10
-6 10 -14z m990 -21 c-7 -8 -17 -12 -23 -8 -6 4 -3 11 8 19 23 17 32 10 15
-11z m1803 19 c9 -10 -4 -34 -19 -34 -16 0 -16 2 -8 24 6 17 16 20 27 10z
m-2713 -13 c0 -13 -26 -32 -33 -24 -8 7 11 33 24 33 5 0 9 -4 9 -9z m1030 -6
c-7 -8 -17 -15 -22 -15 -6 0 -5 7 2 15 7 8 17 15 22 15 6 0 5 -7 -2 -15z m140
5 c0 -5 -5 -9 -11 -7 -6 1 -14 -4 -16 -10 -3 -7 2 -13 10 -13 7 0 14 -7 14
-15 0 -8 -4 -15 -8 -15 -4 0 -9 -10 -11 -22 -4 -32 -32 -29 -36 4 -4 33 23 88
43 88 8 0 15 -4 15 -10z m680 0 c0 -5 -7 -10 -15 -10 -8 0 -15 5 -15 10 0 6 7
10 15 10 8 0 15 -4 15 -10z m950 -21 c-6 -10 -15 -19 -20 -19 -15 0 -12 38 3
43 20 7 28 -3 17 -24z m100 23 c0 -5 -6 -16 -13 -27 -10 -13 -16 -15 -21 -6
-4 6 -2 18 4 26 13 16 30 20 30 7z m-2040 -27 c-14 -17 -30 -20 -30 -6 0 5 8
12 18 14 9 3 19 5 21 6 2 0 -2 -6 -9 -14z m250 5 c0 -5 -5 -10 -11 -10 -5 0
-7 5 -4 10 3 6 8 10 11 10 2 0 4 -4 4 -10z m-309 -33 c-13 -13 -26 -3 -16 12
3 6 11 8 17 5 6 -4 6 -10 -1 -17z m167 11 c-6 -18 -28 -21 -28 -4 0 9 7 16 16
16 9 0 14 -5 12 -12z m922 -4 c0 -8 -5 -12 -10 -9 -6 4 -8 11 -5 16 9 14 15
11 15 -7z m-1850 -13 c-12 -24 -29 -35 -38 -26 -4 3 4 15 18 25 31 24 33 24
20 1z m1738 -5 c3 -15 1 -16 -17 -6 -12 6 -19 16 -15 21 9 15 28 5 32 -15z
m900 12 c-3 -7 -12 -14 -21 -16 -12 -2 -15 1 -11 12 7 19 38 22 32 4z m-1933
-8 c3 -5 1 -10 -4 -10 -6 0 -11 5 -11 10 0 6 2 10 4 10 3 0 8 -4 11 -10z m350
-17 c1 -13 -2 -23 -5 -23 -4 0 -10 -14 -14 -31 -6 -33 -22 -31 -36 5 -5 14 -2
30 8 49 19 32 45 32 47 0z m1675 14 c0 -14 -20 -37 -32 -37 -12 0 -10 24 4 38
16 16 28 15 28 -1z m250 4 c0 -12 -28 -41 -40 -41 -4 0 -22 6 -39 13 -32 14
-32 14 -9 25 28 13 88 15 88 3z m-2110 -10 c0 -11 -31 -24 -39 -16 -3 3 1 10
9 15 19 12 30 12 30 1z m1950 -5 c0 -7 -11 -21 -25 -30 -29 -19 -31 -15 -9 19
18 28 34 33 34 11z m-2340 0 c0 -3 -4 -8 -10 -11 -5 -3 -10 -1 -10 4 0 6 5 11
10 11 6 0 10 -2 10 -4z m1294 -2 c17 -7 22 -44 6 -44 -9 0 -30 31 -30 44 0 8
5 7 24 0z m126 -9 c0 -12 -4 -13 -19 -6 -10 6 -22 7 -26 3 -5 -4 -5 -1 -1 6
10 17 46 15 46 -3z m-1865 -20 c-14 -14 -25 -30 -25 -35 0 -6 -4 -10 -10 -10
-16 0 -12 15 11 44 11 14 27 26 35 26 10 0 7 -8 -11 -25z m2559 1 c-6 -15 -34
-23 -34 -10 0 8 34 34 38 30 1 -2 0 -11 -4 -20z m-1630 -28 c-2 -63 -4 -67
-18 -62 -22 8 -25 39 -9 73 19 38 29 34 27 -11z m1504 17 c-3 -3 -9 2 -12 12
-6 14 -5 15 5 6 7 -7 10 -15 7 -18z m-763 -33 c-9 -9 -36 28 -29 40 4 5 13 0
21 -12 8 -12 12 -24 8 -28z m-1605 28 c0 -5 -9 -15 -20 -22 -11 -7 -20 -23
-20 -35 0 -13 -4 -23 -10 -23 -17 0 -11 36 11 64 21 26 39 34 39 16z m650 6
c0 -3 -4 -8 -10 -11 -5 -3 -10 -1 -10 4 0 6 5 11 10 11 6 0 10 -2 10 -4z
m1190 -6 c0 -5 -4 -10 -10 -10 -5 0 -10 5 -10 10 0 6 5 10 10 10 6 0 10 -4 10
-10z m750 -4 c0 -22 -29 -41 -42 -28 -9 9 -7 16 8 27 24 18 34 19 34 1z
m-2395 -6 c3 -5 1 -10 -4 -10 -6 0 -11 5 -11 10 0 6 2 10 4 10 3 0 8 -4 11
-10z m1555 -4 c0 -8 -5 -18 -10 -21 -13 -8 -42 14 -34 26 9 15 44 10 44 -5z
m570 -8 c0 -18 -2 -20 -9 -8 -6 8 -7 18 -5 22 9 14 14 9 14 -14z m131 -11
c-13 -13 -26 -3 -16 12 3 6 11 8 17 5 6 -4 6 -10 -1 -17z m219 9 c0 -16 -18
-31 -27 -22 -8 8 5 36 17 36 5 0 10 -6 10 -14z m160 -6 c0 -26 -25 -36 -58
-24 -51 18 -35 40 31 43 21 1 27 -4 27 -19z m-2480 0 c0 -5 -4 -10 -10 -10 -5
0 -10 5 -10 10 0 6 5 10 10 10 6 0 10 -4 10 -10z m444 -6 c3 -9 6 -24 6 -35 0
-10 6 -19 13 -20 6 0 1 -4 -11 -10 -32 -12 -42 -4 -42 35 0 45 21 64 34 30z
m861 -5 c4 -11 4 -23 1 -26 -8 -9 -36 17 -36 33 0 22 28 16 35 -7z m215 11 c0
-5 -7 -10 -16 -10 -8 0 -12 5 -9 10 3 6 10 10 16 10 5 0 9 -4 9 -10z m-1838
-12 c-5 -7 -12 -24 -14 -37 -3 -27 -28 -42 -28 -16 0 20 29 65 42 65 7 0 7 -4
0 -12z m2248 -3 c0 -8 -4 -15 -8 -15 -5 0 -9 7 -9 15 0 8 4 15 9 15 4 0 8 -7
8 -15z m-1548 -24 c-2 -16 1 -39 8 -51 10 -20 9 -21 -12 -18 -27 4 -36 44 -18
78 16 29 27 25 22 -9z m1058 14 c0 -8 -7 -15 -15 -15 -8 0 -15 7 -15 15 0 8 7
15 15 15 8 0 15 -7 15 -15z m435 7 c14 -10 13 -28 -4 -44 -11 -11 -12 -9 -6
10 4 13 2 22 -4 22 -6 0 -11 5 -11 10 0 12 11 13 25 2z m-289 -18 c-3 -9 -6
-18 -6 -20 0 -3 -4 -3 -10 1 -11 7 -2 35 12 35 6 0 7 -7 4 -16z m243 -20 c-13
-16 -23 -19 -14 -5 3 5 1 12 -5 16 -20 12 -10 26 11 15 16 -9 18 -14 8 -26z
m231 22 c0 -8 -7 -16 -15 -20 -10 -4 -15 1 -15 14 0 11 7 20 15 20 8 0 15 -6
15 -14z m130 -1 c0 -19 -24 -30 -41 -19 -9 5 -7 11 6 21 24 17 35 17 35 -2z
m-2458 -7 c-7 -7 -12 -25 -12 -40 0 -27 -19 -41 -21 -15 -3 34 13 67 34 67 7
0 7 -4 -1 -12z m594 -32 c1 -30 -3 -46 -12 -50 -11 -4 -14 5 -14 38 0 40 5 56
19 56 3 0 7 -20 7 -44z m-473 22 c-18 -23 -24 -68 -12 -91 12 -22 12 -22 -10
-3 -11 11 -21 28 -21 38 0 21 30 67 44 68 5 0 4 -6 -1 -12z m421 -10 c-11 -18
-11 -40 0 -56 11 -16 1 -26 -19 -19 -20 8 -19 46 1 75 17 24 33 24 18 0z m956
12 c0 -5 -4 -10 -10 -10 -5 0 -10 5 -10 10 0 6 5 10 10 10 6 0 10 -4 10 -10z
m154 -20 c9 0 15 -4 12 -8 -2 -4 4 -13 15 -20 15 -9 19 -9 19 0 0 6 7 3 15 -8
16 -21 20 -54 6 -54 -9 0 -55 34 -83 63 -10 9 -22 17 -28 17 -5 0 -10 10 -10
22 0 20 1 20 18 5 10 -10 26 -17 36 -17z m96 10 c0 -21 -15 -27 -25 -10 -7 12
2 30 16 30 5 0 9 -9 9 -20z m165 10 c4 -6 15 -8 25 -5 17 6 38 -11 27 -21 -13
-13 -57 -11 -57 3 0 8 -6 13 -12 12 -7 -1 -20 -1 -28 0 -13 1 -13 2 0 11 20
13 37 13 45 0z m155 -22 c0 -6 -3 -8 -7 -5 -3 4 -13 1 -21 -6 -13 -10 -15 -9
-9 6 3 9 2 17 -4 17 -6 0 -7 5 -4 10 8 13 45 -6 45 -22z m475 23 c3 -5 -2 -17
-11 -25 -19 -19 -48 -22 -38 -3 21 36 37 46 49 28z m-2485 -15 c0 -8 -4 -17
-9 -20 -5 -3 -7 -15 -4 -26 7 -26 -14 -26 -22 0 -7 21 10 60 25 60 6 0 10 -6
10 -14z m1950 -5 c0 -9 -19 -37 -21 -31 -8 27 -4 48 7 43 8 -3 14 -8 14 -12z
m-1841 -41 c-2 -54 -15 -66 -25 -24 -5 21 11 74 23 74 1 0 2 -22 2 -50z m318
30 c-3 -12 -2 -34 3 -49 7 -25 6 -28 -11 -24 -16 5 -19 12 -14 40 3 20 8 39
11 44 10 16 16 9 11 -11z m1791 8 c-6 -18 -25 -20 -31 -3 -5 10 0 15 14 15 12
0 19 -5 17 -12z m420 -10 c-2 -18 -10 -23 -35 -23 -36 -1 -68 18 -58 34 3 6
26 11 51 11 41 0 45 -2 42 -22z m-1154 -4 c17 -17 21 -34 8 -34 -5 0 -14 11
-20 25 -13 29 -10 31 12 9z m246 7 c0 -5 14 -11 32 -15 17 -3 38 -12 46 -19 8
-6 27 -13 41 -14 63 -6 75 -9 78 -20 5 -13 -66 -12 -102 1 -42 16 -50 19 -60
20 -16 2 -65 37 -65 47 0 5 7 9 15 9 8 0 15 -4 15 -9z m620 0 c0 -17 -25 -30
-40 -20 -13 8 -13 10 0 19 19 12 40 13 40 1z m-2074 -88 c-2 -2 -11 -1 -20 3
-19 7 -20 24 -4 60 l13 27 7 -43 c4 -24 6 -45 4 -47z m49 38 c3 -31 0 -38 -11
-34 -15 5 -19 40 -8 68 9 23 16 12 19 -34z m51 9 c1 -27 -3 -40 -12 -40 -15 0
-18 21 -8 58 10 34 19 26 20 -18z m1780 11 c-10 -16 -36 -13 -36 3 0 17 21 27
34 16 4 -5 5 -13 2 -19z m-1941 -10 c-3 -17 -2 -32 4 -36 20 -12 12 -26 -9
-15 -22 12 -25 31 -10 61 15 28 23 23 15 -10z m1151 -17 c-3 -8 -10 -14 -15
-14 -10 0 -9 9 6 48 6 16 6 16 10 -1 3 -10 2 -25 -1 -33z m-1202 -6 c7 -30 -4
-37 -24 -13 -6 8 -9 23 -5 36 8 25 20 15 29 -23z m1372 15 c10 -10 22 -18 27
-18 19 0 32 -34 19 -47 -10 -10 -14 -8 -19 10 -3 14 -11 21 -19 18 -8 -3 -14
1 -14 9 0 8 -4 15 -10 15 -5 0 -10 7 -10 15 0 19 5 19 26 -2z m574 8 c0 -6 -5
-13 -10 -16 -15 -9 -43 3 -35 15 8 13 45 13 45 1z m190 1 c0 -14 -24 -32 -42
-32 -16 0 -17 3 -8 20 10 19 50 29 50 12z m120 -7 c0 -15 -26 -32 -36 -23 -2
3 -2 13 2 22 8 20 34 21 34 1z m-706 -16 c-7 -11 66 -55 84 -51 8 2 19 -2 27
-8 8 -7 21 -7 39 0 20 7 26 6 26 -3 0 -10 18 -13 75 -10 70 3 92 -5 64 -23
-19 -12 -103 -14 -110 -2 -4 7 -13 6 -28 -2 -17 -9 -26 -9 -37 0 -7 7 -20 10
-28 7 -7 -3 -19 0 -25 6 -6 6 -18 12 -26 13 -8 1 -33 10 -55 21 -31 14 -40 23
-40 45 0 21 4 25 20 21 11 -3 17 -9 14 -14z m315 12 c20 -13 3 -34 -22 -27
-12 3 -26 1 -32 -4 -6 -5 -17 -5 -25 1 -13 8 -13 10 0 19 8 6 23 8 33 6 9 -2
17 0 17 5 0 11 11 11 29 0z m-709 -11 c0 -5 -4 -10 -10 -10 -5 0 -10 5 -10 10
0 6 5 10 10 10 6 0 10 -4 10 -10z m97 -50 c-16 -26 -22 -25 -25 5 -1 14 3 25
8 25 6 0 10 8 11 18 0 13 3 11 9 -6 7 -15 6 -29 -3 -42z m1165 42 c7 -7 3 -17
-12 -32 -18 -18 -23 -19 -33 -7 -7 7 -27 20 -45 27 -25 10 -30 15 -20 22 16
11 96 4 110 -10z m-447 -2 c3 -5 1 -10 -4 -10 -6 0 -11 5 -11 10 0 6 2 10 4
10 3 0 8 -4 11 -10z m-656 -45 c-3 -45 -24 -68 -41 -43 -12 19 -10 28 7 34 8
4 15 17 15 30 0 13 5 24 10 24 7 0 10 -19 9 -45z m301 35 c0 -5 -5 -10 -11
-10 -5 0 -7 5 -4 10 3 6 8 10 11 10 2 0 4 -4 4 -10z m448 -7 c-4 -22 -48 -31
-48 -10 0 19 10 27 32 27 13 0 18 -6 16 -17z m-413 -3 c3 -5 1 -10 -4 -10 -6
0 -11 5 -11 10 0 6 2 10 4 10 3 0 8 -4 11 -10z m555 6 c0 -20 -17 -36 -38 -36
-24 0 -25 0 -7 20 16 17 45 28 45 16z m-495 -16 c-3 -5 -11 -10 -16 -10 -6 0
-7 5 -4 10 3 6 11 10 16 10 6 0 7 -4 4 -10z m130 0 c3 -5 -2 -11 -12 -11 -10
-1 -28 -3 -40 -4 -13 -1 -23 0 -23 2 0 5 42 22 57 22 6 1 15 -3 18 -9z m35 0
c0 -5 -4 -10 -10 -10 -5 0 -10 5 -10 10 0 6 5 10 10 10 6 0 10 -4 10 -10z
m124 -15 c-8 -19 -35 -28 -48 -15 -8 8 -6 15 7 25 22 16 48 9 41 -10z m-528 0
c4 -9 19 -15 36 -15 16 0 27 -4 24 -8 -2 -4 0 -14 5 -22 8 -13 10 -13 19 0 7
10 12 12 18 4 9 -14 68 -34 76 -27 3 4 6 1 6 -5 0 -7 7 -12 15 -12 20 0 19
-14 -1 -31 -14 -11 -18 -11 -28 2 -6 8 -24 15 -41 15 -24 -1 -31 4 -33 21 -3
19 -7 21 -29 12 -21 -8 -26 -6 -30 11 -4 15 -11 19 -25 14 -20 -6 -47 19 -48
44 0 17 29 15 36 -3z m-262 -11 c3 -8 2 -12 -4 -9 -6 3 -10 10 -10 16 0 14 7
11 14 -7z m1016 6 c0 -5 -2 -10 -4 -10 -3 0 -8 5 -11 10 -3 6 -1 10 4 10 6 0
11 -4 11 -10z m-865 -41 c-3 -46 -15 -63 -31 -45 -8 9 -7 22 3 49 20 49 31 47
28 -4z m573 29 c-5 -15 -48 -24 -48 -10 0 14 12 22 33 22 10 0 17 -5 15 -12z
m196 -12 c-6 -15 -44 -29 -54 -20 -7 8 40 45 51 39 4 -3 6 -12 3 -19z m204 8
c22 -15 22 -17 6 -35 -18 -20 -50 -27 -39 -9 4 6 -10 17 -29 25 -20 9 -36 20
-36 25 0 16 73 11 98 -6z m-918 -39 c0 -7 5 -15 10 -17 7 -2 6 -14 -2 -35 -10
-26 -17 -32 -40 -30 -32 2 -33 3 -13 23 8 9 15 28 15 43 0 15 3 31 6 34 10 9
24 -2 24 -18z m-1070 5 c0 -5 -5 -10 -11 -10 -5 0 -7 5 -4 10 3 6 8 10 11 10
2 0 4 -4 4 -10z m1716 -19 c-4 -6 -21 -11 -37 -11 -33 0 -31 16 5 30 23 9 42
-2 32 -19z m157 6 c57 -20 67 -35 39 -57 -22 -18 -23 -18 -57 13 -19 17 -35
37 -35 44 0 16 5 16 53 0z m-2156 -3 c-3 -3 -12 -4 -19 -1 -8 3 -5 6 6 6 11 1
17 -2 13 -5z m1417 -29 c12 -28 13 -41 4 -60 -12 -27 -33 -33 -41 -12 -5 13
13 107 20 107 1 0 9 -16 17 -35z m-1357 19 c-3 -3 -12 -4 -19 -1 -8 3 -5 6 6
6 11 1 17 -2 13 -5z m1608 -2 c6 -4 11 -17 13 -30 3 -20 0 -23 -20 -20 -17 2
-23 10 -25 31 -2 26 11 35 32 19z m252 -9 c3 -7 -5 -17 -17 -23 -16 -9 -22 -8
-27 6 -3 9 0 20 8 25 17 10 31 7 36 -8z m-192 -3 c-18 -8 -18 -9 5 -10 14 -2
29 -2 35 0 5 1 1 -8 -9 -19 -16 -17 -22 -19 -35 -8 -34 26 -30 48 9 46 10 0 8
-3 -5 -9z m333 -14 c76 -38 94 -76 36 -76 -17 0 -27 8 -34 25 -5 14 -17 28
-25 31 -8 4 -15 12 -15 19 0 7 -6 16 -12 18 -7 3 -9 6 -5 6 4 1 29 -10 55 -23z
m-579 -17 c13 -38 14 -69 2 -87 -13 -21 -43 14 -35 42 4 11 7 33 6 48 -1 37
13 35 27 -3z m371 22 c0 -16 -27 -31 -44 -25 -30 11 -16 34 21 34 13 0 23 -4
23 -9z m110 -36 c13 -14 30 -25 38 -25 8 0 21 -8 28 -17 36 -48 -13 -67 -51
-21 -55 65 -67 119 -15 63z m-407 -21 c16 -33 24 -94 11 -94 -3 0 -14 5 -25
10 -16 9 -19 20 -18 65 1 30 5 55 8 55 3 0 14 -16 24 -36z m97 -41 c6 -7 9
-13 6 -13 -2 0 -1 -13 4 -30 5 -18 5 -32 -1 -35 -5 -4 -9 -1 -9 4 0 6 -7 11
-15 11 -21 0 -35 33 -35 82 l1 43 19 -25 c11 -14 25 -31 30 -37z m220 42 c7
-8 17 -12 24 -8 6 3 8 3 4 -2 -11 -12 11 -35 28 -28 8 3 14 1 14 -3 0 -5 3
-19 6 -31 5 -19 2 -23 -18 -23 -30 0 -52 22 -73 73 -15 38 -8 49 15 22z m-630
-5 c0 -5 -2 -10 -4 -10 -3 0 -8 5 -11 10 -3 6 -1 10 4 10 6 0 11 -4 11 -10z
m456 -5 c4 -8 10 -12 15 -9 5 3 9 -4 9 -15 0 -12 5 -21 11 -21 6 0 18 -7 26
-16 12 -12 14 -20 6 -33 -25 -39 -73 -12 -73 40 0 17 -5 39 -10 50 -8 13 -7
19 0 19 6 0 13 -7 16 -15z m154 -89 c0 -20 -17 -29 -36 -18 -12 7 -52 95 -54
121 0 2 20 -17 45 -42 25 -26 45 -53 45 -61z m380 -346 c0 -13 -28 -25 -38
-16 -3 4 0 11 8 16 20 13 30 12 30 0z m75 0 c-3 -5 -10 -10 -16 -10 -5 0 -9 5
-9 10 0 6 7 10 16 10 8 0 12 -4 9 -10z m70 0 c-3 -5 -10 -10 -16 -10 -5 0 -9
5 -9 10 0 6 7 10 16 10 8 0 12 -4 9 -10z m-227 -12 c-3 -7 -13 -15 -24 -17
-16 -3 -17 -1 -5 13 16 19 34 21 29 4z m342 -2 c0 -3 -4 -8 -10 -11 -5 -3 -10
-1 -10 4 0 6 5 11 10 11 6 0 10 -2 10 -4z m-430 -15 c0 -12 -20 -25 -27 -18
-7 7 6 27 18 27 5 0 9 -4 9 -9z m480 -1 c0 -5 -5 -10 -11 -10 -5 0 -7 5 -4 10
3 6 8 10 11 10 2 0 4 -4 4 -10z m-575 -30 c-3 -5 -11 -10 -16 -10 -6 0 -7 5
-4 10 3 6 11 10 16 10 6 0 7 -4 4 -10z m-95 -30 c0 -5 -4 -10 -10 -10 -5 0
-10 5 -10 10 0 6 5 10 10 10 6 0 10 -4 10 -10z m-1590 -471 c0 -6 -4 -7 -10
-4 -5 3 -10 11 -10 16 0 6 5 7 10 4 6 -3 10 -11 10 -16z m55 -49 c3 -5 1 -10
-4 -10 -6 0 -11 5 -11 10 0 6 2 10 4 10 3 0 8 -4 11 -10z m55 -61 c0 -6 -4 -7
-10 -4 -5 3 -10 11 -10 16 0 6 5 7 10 4 6 -3 10 -11 10 -16z m2540 11 c0 -5
-7 -10 -16 -10 -8 0 -12 5 -9 10 3 6 10 10 16 10 5 0 9 -4 9 -10z m-60 -19 c0
-15 -19 -23 -38 -16 -14 5 -14 7 -2 15 19 12 40 13 40 1z m-76 -20 c3 -5 -1
-12 -10 -15 -20 -8 -29 -1 -19 13 8 13 22 14 29 2z m156 -16 c0 -7 -57 -35
-70 -35 -23 0 -2 25 26 31 41 9 44 10 44 4z m-2500 -15 c0 -5 -2 -10 -4 -10
-3 0 -8 5 -11 10 -3 6 -1 10 4 10 6 0 11 -4 11 -10z m2265 0 c-3 -5 -14 -10
-23 -10 -15 0 -15 2 -2 10 20 13 33 13 25 0z m123 -22 c-3 -7 -13 -15 -24 -17
-16 -3 -17 -1 -5 13 16 19 34 21 29 4z m-218 -18 c-8 -5 -22 -10 -30 -10 -13
0 -13 1 0 10 8 5 22 10 30 10 13 0 13 -1 0 -10z m150 -10 c0 -5 -4 -10 -10
-10 -5 0 -10 5 -10 10 0 6 5 10 10 10 6 0 10 -4 10 -10z m80 -39 c0 -12 -20
-25 -27 -18 -7 7 6 27 18 27 5 0 9 -4 9 -9z m-72 -33 c-2 -6 -10 -14 -16 -16
-7 -2 -10 2 -6 12 7 18 28 22 22 4z m-2188 -18 c0 -5 -2 -10 -4 -10 -3 0 -8 5
-11 10 -3 6 -1 10 4 10 6 0 11 -4 11 -10z m1980 6 c0 -3 -4 -8 -10 -11 -5 -3
-10 -1 -10 4 0 6 5 11 10 11 6 0 10 -2 10 -4z m146 -12 c-3 -9 -6 -18 -6 -20
0 -3 -4 -3 -10 1 -11 7 -2 35 12 35 6 0 7 -7 4 -16z m-56 -28 c0 -15 -18 -31
-26 -23 -7 7 7 37 17 37 5 0 9 -6 9 -14z m-50 -30 c0 -16 -18 -31 -27 -22 -8
8 5 36 17 36 5 0 10 -6 10 -14z m-1934 -23 c-7 -7 -26 7 -26 19 0 6 6 6 15 -2
9 -7 13 -15 11 -17z m1884 -17 c0 -15 -18 -31 -26 -23 -7 7 7 37 17 37 5 0 9
-6 9 -14z m-50 -30 c0 -15 -18 -31 -26 -23 -7 7 7 37 17 37 5 0 9 -6 9 -14z
m-1760 -16 c0 -5 -2 -10 -4 -10 -3 0 -8 5 -11 10 -3 6 -1 10 4 10 6 0 11 -4
11 -10z m1710 -34 c0 -8 -4 -18 -10 -21 -5 -3 -10 3 -10 14 0 12 5 21 10 21 6
0 10 -6 10 -14z m-1635 -36 c3 -5 1 -10 -4 -10 -6 0 -11 5 -11 10 0 6 2 10 4
10 3 0 8 -4 11 -10z m1589 -15 c-6 -16 -24 -21 -24 -7 0 11 11 22 21 22 5 0 6
-7 3 -15z m-54 -45 c0 -5 -4 -10 -10 -10 -5 0 -10 5 -10 10 0 6 5 10 10 10 6
0 10 -4 10 -10z m-1455 -10 c3 -5 1 -10 -4 -10 -6 0 -11 5 -11 10 0 6 2 10 4
10 3 0 8 -4 11 -10z m1355 -90 c0 -5 -4 -10 -10 -10 -5 0 -10 5 -10 10 0 6 5
10 10 10 6 0 10 -4 10 -10z m-60 -49 c0 -6 -4 -13 -10 -16 -5 -3 -10 1 -10 9
0 9 5 16 10 16 6 0 10 -4 10 -9z m-60 -40 c0 -12 -20 -25 -27 -18 -7 7 6 27
18 27 5 0 9 -4 9 -9z m-80 -51 c-11 -20 -30 -28 -30 -12 0 11 22 32 32 32 5 0
4 -9 -2 -20z m478 -21 c3 -16 -43 -77 -52 -68 -3 3 2 24 11 48 16 40 35 50 41
20z m-567 -22 c-16 -16 -26 0 -10 19 9 11 15 12 17 4 2 -6 -1 -17 -7 -23z
m-541 -1 c0 -3 -4 -8 -10 -11 -5 -3 -10 -1 -10 4 0 6 5 11 10 11 6 0 10 -2 10
-4z m455 -25 c-3 -6 -14 -11 -23 -11 -15 1 -15 2 2 15 21 16 32 13 21 -4z
m-267 -13 c-2 -6 -10 -14 -16 -16 -7 -2 -10 2 -6 12 7 18 28 22 22 4z m88 -15
c-10 -10 -19 5 -10 18 6 11 8 11 12 0 2 -7 1 -15 -2 -18z m92 15 c-3 -7 -13
-15 -24 -17 -16 -3 -17 -1 -5 13 16 19 34 21 29 4z"/>
<path d="M5794 6561 c3 -5 16 -11 28 -14 22 -6 22 -5 4 8 -22 17 -40 20 -32 6z"/>
<path d="M6105 5920 c-3 -5 -2 -10 4 -10 5 0 13 5 16 10 3 6 2 10 -4 10 -5 0
-13 -4 -16 -10z"/>
<path d="M6240 5725 c-7 -8 -8 -15 -2 -15 5 0 15 7 22 15 7 8 8 15 2 15 -5 0
-15 -7 -22 -15z"/>
<path d="M6821 5188 c5 -10 12 -18 14 -18 3 0 5 8 5 18 0 10 -7 19 -14 19 -11
0 -13 -5 -5 -19z"/>
<path d="M4140 4929 c0 -5 5 -7 10 -4 6 3 10 8 10 11 0 2 -4 4 -10 4 -5 0 -10
-5 -10 -11z"/>
</g>
</svg>
