<svg width="19" height="21" viewBox="0 0 19 21" fill="none" xmlns="http://www.w3.org/2000/svg">
<path d="M9.50003 21C10.9487 21 12.1238 19.8249 12.1238 18.375H6.87626C6.87626 19.8249 8.05136 21 9.50003 21ZM18.3344 14.8596C17.542 14.0081 16.0592 12.7271 16.0592 8.53125C16.0592 5.34434 13.8247 2.79316 10.8117 2.16727V1.3125C10.8117 0.587754 10.2244 0 9.50003 0C8.77569 0 8.18835 0.587754 8.18835 1.3125V2.16727C5.17534 2.79316 2.94081 5.34434 2.94081 8.53125C2.94081 12.7271 1.45809 14.0081 0.665673 14.8596C0.419579 15.1241 0.310478 15.4403 0.312528 15.75C0.31704 16.4227 0.844911 17.0625 1.62913 17.0625H17.3709C18.1551 17.0625 18.6834 16.4227 18.6875 15.75C18.6896 15.4403 18.5805 15.1237 18.3344 14.8596Z" fill="white"/>
</svg>
