<svg width="25" height="26" viewBox="0 0 25 26" fill="none" xmlns="http://www.w3.org/2000/svg">
<path d="M16.1309 12.8282C15.0435 12.6597 13.9561 12.4795 12.8669 12.3294C10.3791 11.9853 7.89129 11.6389 5.39996 11.3386C4.78464 11.2647 4.39564 10.983 4.09152 10.2486C2.82021 7.17005 1.49763 4.13079 0.210411 1.06612C0.0813353 0.758963 0.06719 0.370972 0 0.0199326C0.26876 0.0291705 0.569347 -0.0585893 0.804512 0.0638125C8.67636 4.14002 16.5429 8.23471 24.4059 12.3409C24.6287 12.4587 24.8037 12.7336 25.0018 12.9345C24.7984 13.17 24.6234 13.5003 24.3864 13.625C16.5234 17.7336 8.65691 21.8236 0.786831 25.9021C0.567579 26.0153 0.298819 25.9714 0.0530448 25.9991C0.0901761 25.655 0.0565811 25.2578 0.175048 24.9714C1.47464 21.8698 2.81668 18.8005 4.10036 15.6897C4.40979 14.9391 4.8147 14.6989 5.41941 14.6227C8.90445 14.1724 12.3877 13.6827 15.871 13.2001C15.9559 13.1885 16.0354 13.1308 16.1185 13.0938L16.1327 12.8282H16.1309Z" fill="#63cccd"/>
</svg>
