<svg width="24" height="24" viewBox="0 0 24 24" fill="none" xmlns="http://www.w3.org/2000/svg">
<circle cx="12" cy="12" r="13" fill="#277777"/>
<path d="M-1 12C-1 4.82028 4.82028 -1 12 -1C19.1797 -1 25 4.82028 25 12C25 19.1797 19.1797 25 12 25C4.82028 25 -1 19.1797 -1 12ZM2.79804 18.5979C4.85299 21.4589 8.20866 23.3226 12 23.3226C15.7913 23.3226 19.147 21.4589 21.202 18.5979C21.0373 17.1831 20.0138 15.9954 18.6052 15.6432L16.9082 15.219C15.5417 16.3922 13.8201 17.0323 12 17.0323C10.1799 17.0323 8.45829 16.3922 7.09177 15.219L5.39474 15.6432C3.98623 15.9954 2.96269 17.1831 2.79804 18.5979ZM6.12903 9.48387C6.12903 12.7263 8.75755 15.3548 12 15.3548C15.2425 15.3548 17.871 12.7263 17.871 9.48387C17.871 6.24142 15.2425 3.6129 12 3.6129C8.75755 3.6129 6.12903 6.24142 6.12903 9.48387Z" fill="white"/>
</svg>
