<svg width="24" height="18" viewBox="0 0 20 14" fill="none" xmlns="http://www.w3.org/2000/svg">
<g clip-path="url(#clip0_752_35082)">
<path d="M0 7.13966C0 7.07703 0 7.01533 0 6.9527C0.930667 5.31032 2.04267 3.82871 3.45333 2.60791C5.08889 1.19267 6.92889 0.249491 9.05511 0.0466465C12.104 -0.244066 14.7147 0.83559 16.9689 2.96312C18.1911 4.11569 19.1582 5.48138 19.9991 6.9527V7.13966C19.9378 7.22098 19.8676 7.2967 19.8178 7.3855C19.0062 8.82784 18.0062 10.1029 16.8107 11.2162C12.272 15.4404 5.31289 14.7851 1.59644 9.74205C0.997333 8.9288 0.528889 8.00992 0 7.13966H0ZM9.97155 11.3798C12.3351 11.4265 14.192 9.5579 14.1938 7.03496C14.1956 4.43911 12.392 2.65091 10.0844 2.61632C7.76889 2.58173 5.95467 4.39331 5.84889 6.75266C5.73511 9.29897 7.53333 11.39 9.97244 11.3798H9.97155Z" fill="#139AD5"/>
<path d="M10.0053 9.61028C8.64173 9.60841 7.53418 8.43808 7.53418 6.99854C7.53418 5.55994 8.64262 4.39054 10.0071 4.38867C11.3813 4.38774 12.5395 5.60387 12.5155 7.02285C12.4915 8.44836 11.3626 9.61121 10.0053 9.61028Z" fill="#139AD4"/>
</g>
<defs>
<clipPath id="clip0_752_35082">
<rect width="20" height="14" fill="white"/>
</clipPath>
</defs>
</svg>
